<svg xmlns="http://www.w3.org/2000/svg" viewBox="0 0 112.50782 162.54782"><defs><style>.cls-1{fill:#fff;stroke-width:4px;}.cls-1,.cls-2{stroke:#207dcc;stroke-linecap:round;stroke-linejoin:round;}.cls-2{fill:#207dcc;}</style></defs><title>DCG ICON BUSINESS</title><g id="Layer_2" data-name="Layer 2"><g id="Layer_1-2" data-name="Layer 1"><rect class="cls-1" x="2" y="52.04001" width="108.50782" height="108.50782"/><rect class="cls-1" x="10.17058" y="22.04" width="92.1667" height="30.30365"/><rect class="cls-1" x="9.95608" y="59.67699" width="21.5" height="21.5"/><rect class="cls-1" x="45.50391" y="59.67699" width="21.5" height="21.5"/><rect class="cls-1" x="80.83724" y="59.67699" width="21.5" height="21.5"/><rect class="cls-1" x="9.95608" y="89.67699" width="21.5" height="21.5"/><rect class="cls-1" x="45.50391" y="89.67699" width="21.5" height="21.5"/><rect class="cls-1" x="80.83724" y="89.67699" width="21.5" height="21.5"/><rect class="cls-1" x="9.95608" y="119.67699" width="21.5" height="21.5"/><rect class="cls-1" x="45.50391" y="119.67699" width="21.5" height="33.33333"/><rect class="cls-1" x="80.83724" y="119.67699" width="21.5" height="21.5"/><circle class="cls-1" cx="56.19679" cy="21.24897" r="19.24897"/><path class="cls-2" d="M56.89938,34.84366H54.51226V31.88093a8.42662,8.42662,0,0,1-4.44409-1.87075q-1.7861-1.51523-2.04005-5.10436H52.2098q-.01694.18624-.01693.27088a3.538,3.538,0,0,0,.60947,2.06544,2.89344,2.89344,0,0,0,1.70992,1.16817V21.232a13.20324,13.20324,0,0,1-4.84194-3.27593,5.66236,5.66236,0,0,1-1.25281-3.54681,5.41883,5.41883,0,0,1,1.676-3.99545,6.825,6.825,0,0,1,4.4187-1.87921V7.65428h2.38712v.88036A7.43089,7.43089,0,0,1,61.589,10.43078a5.70941,5.70941,0,0,1,1.74378,4.334H59.15105q-.28611-2.658-2.25167-2.87808V17.5244l2.30246,1.03272a10.82227,10.82227,0,0,1,3.10663,2.00619,6.38546,6.38546,0,0,1,1.60834,2.34479,7.107,7.107,0,0,1,.44864,2.47176,5.93849,5.93849,0,0,1-2.02312,4.57106,8.07924,8.07924,0,0,1-5.44295,1.93Zm-2.38712-22.94q-1.91307.35553-1.91307,1.99773,0,1.40517,1.91307,2.53948Zm2.38712,16.659A3.4223,3.4223,0,0,0,59.295,27.75a2.55725,2.55725,0,0,0,.93961-1.98079q0-2.21782-3.33518-3.50449Z"/></g></g></svg>