<svg xmlns="http://www.w3.org/2000/svg" xmlns:xlink="http://www.w3.org/1999/xlink" viewBox="0 0 923.08626 1298.43511"><defs><style>.cls-1{fill:#fff;}.cls-2{fill:#95d6ef;opacity:0.78;}.cls-3{fill:#773824;}.cls-4{fill:#eab27f;}.cls-5{fill:url(#linear-gradient);}.cls-6{fill:#e8e8e8;}.cls-7{fill:url(#radial-gradient);}.cls-8{fill:#f7c18f;}.cls-9{fill:url(#linear-gradient-2);}.cls-10{fill:url(#linear-gradient-3);}.cls-11{fill:url(#Indigo);}.cls-12{fill:url(#Indigo-2);}.cls-13{fill:url(#radial-gradient-2);}.cls-14{fill:#a5a5a5;}.cls-15{fill:#c4c3c3;}.cls-16{fill:#fcc792;}.cls-17{fill:url(#linear-gradient-4);}.cls-18{fill:url(#linear-gradient-5);}.cls-19{fill:url(#radial-gradient-3);}.cls-20{fill:url(#radial-gradient-4);}.cls-21{fill:url(#radial-gradient-5);}.cls-22{fill:#af7510;}.cls-23{fill:#444;}.cls-24{fill:#474751;}.cls-25{fill:#824a08;}.cls-26{fill:url(#linear-gradient-6);}.cls-27,.cls-40,.cls-41{fill:none;}.cls-28{fill:#dca06a;}.cls-29{fill:#8e8c8c;}.cls-30{fill:url(#radial-gradient-6);}.cls-31{fill:#85a8ff;}.cls-32{fill:#890e0e;}.cls-33{fill:#5e3c0b;}.cls-34{fill:#71bf6b;}.cls-35{fill:#8e8e8e;}.cls-36{fill:url(#linear-gradient-7);}.cls-37{fill:url(#radial-gradient-7);}.cls-38{fill:url(#linear-gradient-8);}.cls-39{fill:#774a0e;}.cls-40,.cls-41{stroke:#588de0;stroke-miterlimit:10;}.cls-40{stroke-width:2.22088px;}.cls-41{stroke-width:1.48059px;}.cls-42{fill:#ccc;}.cls-43{fill:url(#linear-gradient-9);}.cls-44{fill:#4f4f4f;}.cls-45{fill:#a0a0a0;}</style><linearGradient id="linear-gradient" x1="434.93525" y1="509.78474" x2="475.60192" y2="563.11807" gradientUnits="userSpaceOnUse"><stop offset="0.00541" stop-color="#f2d3b6"/><stop offset="1" stop-color="#f2b983"/></linearGradient><radialGradient id="radial-gradient" cx="415.26625" cy="601.86613" r="151.20707" gradientUnits="userSpaceOnUse"><stop offset="0.09677" stop-color="#3cb5ad"/><stop offset="0.22563" stop-color="#38aea8"/><stop offset="0.41114" stop-color="#2d9b98"/><stop offset="0.63098" stop-color="#1a7c7f"/><stop offset="0.87537" stop-color="#00515d"/><stop offset="0.87902" stop-color="#00505c"/></radialGradient><linearGradient id="linear-gradient-2" x1="528.14474" y1="651.37469" x2="531.64474" y2="722.37469" xlink:href="#linear-gradient"/><linearGradient id="linear-gradient-3" x1="409.70012" y1="842.24117" x2="492.70012" y2="871.24117" xlink:href="#linear-gradient"/><linearGradient id="Indigo" x1="377.8022" y1="990.1734" x2="441.07201" y2="990.1734" gradientUnits="userSpaceOnUse"><stop offset="0" stop-color="#5b57a5"/><stop offset="0.5" stop-color="#2e3092"/><stop offset="1" stop-color="#474374"/></linearGradient><linearGradient id="Indigo-2" x1="462.31374" y1="986.5743" x2="491.5691" y2="986.5743" xlink:href="#Indigo"/><radialGradient id="radial-gradient-2" cx="413.05432" cy="738.4383" r="185.98296" gradientUnits="userSpaceOnUse"><stop offset="0.09677" stop-color="#3cb5ad"/><stop offset="0.87902" stop-color="#00505c"/></radialGradient><linearGradient id="linear-gradient-4" x1="357.15789" y1="657.68442" x2="404.49123" y2="691.68442" xlink:href="#linear-gradient"/><linearGradient id="linear-gradient-5" x1="647.77241" y1="853.20354" x2="763.85318" y2="853.20354" gradientUnits="userSpaceOnUse"><stop offset="0.00541" stop-color="#f2ddc9"/><stop offset="1" stop-color="#f2b983"/></linearGradient><radialGradient id="radial-gradient-3" cx="697.6582" cy="813.58036" r="102.6301" gradientTransform="translate(1378.97536 84.6837) rotate(87.43361) scale(1 0.87671)" gradientUnits="userSpaceOnUse"><stop offset="0" stop-color="#ced0d0"/><stop offset="0.42362" stop-color="#9ab7c2"/><stop offset="1" stop-color="#5697b1"/></radialGradient><radialGradient id="radial-gradient-4" cx="664.80876" cy="951.89753" r="17.31952" gradientTransform="translate(1389.93117 268.63034) rotate(88.55844) scale(1 0.77958)" gradientUnits="userSpaceOnUse"><stop offset="0" stop-color="#fff"/><stop offset="0.58109" stop-color="#9ac1d1"/><stop offset="1" stop-color="#5697b1"/></radialGradient><radialGradient id="radial-gradient-5" cx="745.81205" cy="947.37613" r="20.69005" gradientTransform="matrix(-0.00069, 1, -0.69248, -0.00048, 1402.36527, 202.02017)" xlink:href="#radial-gradient-4"/><linearGradient id="linear-gradient-6" x1="626.9068" y1="537.2767" x2="675.4068" y2="618.2767" xlink:href="#linear-gradient"/><radialGradient id="radial-gradient-6" cx="680.12836" cy="694.73468" r="36.51303" gradientUnits="userSpaceOnUse"><stop offset="0.16939" stop-opacity="0"/><stop offset="0.38805" stop-color="#050504" stop-opacity="0.01048"/><stop offset="0.52861" stop-color="#171613" stop-opacity="0.04484"/><stop offset="0.64717" stop-color="#34332c" stop-opacity="0.10335"/><stop offset="0.75349" stop-color="#5e5d4f" stop-opacity="0.1861"/><stop offset="0.85162" stop-color="#94927d" stop-opacity="0.2932"/><stop offset="0.94252" stop-color="#d6d3b4" stop-opacity="0.42285"/><stop offset="0.98808" stop-color="#fdf9d5" stop-opacity="0.5"/></radialGradient><linearGradient id="linear-gradient-7" x1="747.41391" y1="640.95909" x2="780.91391" y2="691.45909" xlink:href="#linear-gradient-5"/><radialGradient id="radial-gradient-7" cx="641.69647" cy="606.132" r="148.76263" gradientUnits="userSpaceOnUse"><stop offset="0" stop-color="#fff"/><stop offset="1" stop-color="#bfbfbf"/></radialGradient><linearGradient id="linear-gradient-8" x1="685.97749" y1="745.73348" x2="764.47749" y2="776.73348" gradientUnits="userSpaceOnUse"><stop offset="0" stop-color="#ffe7a3"/><stop offset="1" stop-color="#c36d07"/></linearGradient><linearGradient id="linear-gradient-9" x1="665.35109" y1="471.71009" x2="709.68442" y2="544.37675" xlink:href="#linear-gradient-5"/></defs><title>DCG cHARACTERS TOP</title><g id="Layer_2" data-name="Layer 2"><g id="Layer_1-2" data-name="Layer 1"><path class="cls-1" d="M922.83262,953.68517,478.03193,1267.06808a171.77881,171.77881,0,0,1-239.36281-41.48933L31.367,931.34411A171.77881,171.77881,0,0,1,72.85636,691.9813L922.83262,93.13323Z"/><path class="cls-2" d="M922.83262,860.73063,486.85252,1167.899a170.33608,170.33608,0,0,1-237.35246-41.14086L40.53609,830.16471A170.33608,170.33608,0,0,1,81.677,592.81225L923.08626,0Z"/><path class="cls-3" d="M406.06228,509.34852c17.30235-53.61922,34.701-44.18491,45.01432-41.73825,8.04776-2.58363,22.91544-9.73429,41.33955,28.43084,18.16688,37.63231,3.004,61.27786,11.83093,70.10475,15.008,0,14.74229,34.02394-4.74474,40.89434-19.54694,6.89153-66.28028,16.12107-77.87174,9.212s-33.02718-13.36363-33.02718-40.64545c0-4.98291,8.80064-9.07081,11.30359-18.56341C403.693,542.68492,402.16414,521.42868,406.06228,509.34852Z"/><polygon id="_Path_" data-name="&lt;Path&gt;" class="cls-4" points="436.535 566.146 463.78 566.146 464.831 580.378 488.814 586.045 478.556 632.55 423.063 634.194 409.645 591.935 435.34 580.61 436.535 566.146"/><path id="_Path_2" data-name="&lt;Path&gt;" class="cls-5" d="M480.0617,528.91234c-.03887-4.212-.46687-19.382-2.34489-23.07643-8.03243-15.80145-21.02733-18.00917-28.91158-17.84364-14.2906.30006-15.609,4.606-21.9766,9.94-3.21229,2.69087-7.08123,25.83644-6.4272,37.89173a57.23243,57.23243,0,0,0,6.09931,23.90035c1.38573,3.005,15.7,15.8824,21.91433,15.8824,10.92361,0,21.46715-11.55864,26.18693-16.61439C480.0617,553.144,480.06621,528.90925,480.0617,528.91234Z"/><path id="_Path_3" data-name="&lt;Path&gt;" class="cls-6" d="M517.02537,619.79753c-4.21576-11.10914-8.69449-21.47064-12.11162-25.7894-2.17217-2.74531-10.51826-6.66582-11.34978-6.86158l-24.47192-5.76141s.13144,18.557-.98807,26.718c-1.43321,10.44788-33.748,12.09551-37.46824,1.42194L428.488,583.63l-12.30211,3.191c-1.83314.4755-10.96168,2.399-14.06109,5.38683-5.33512,5.143-11.6966,18.79494-16.62128,32.3937l19.13483,16.27529c.32533-.86817-4.79446,14.47644-2.53691,20.06338,2.14156,5.29989,12.40084,7.4445,12.40084,7.4445l5.4558,25.50344a11.26278,11.26278,0,0,1-1.32517,8.09932l-5.44792,12.3834,41.0342,3.97145,38.4162-5.31464-4.28211-12.26156a13.61111,13.61111,0,0,1-.50608-7.10989l4.9617-25.27152,2.09825-.41589a11.67209,11.67209,0,0,0,6.48913-3.63691,14.0129,14.0129,0,0,0,3.515-9.93886l-3.73294-17.8963"/><path id="_Path_4" data-name="&lt;Path&gt;" class="cls-7" d="M517.02537,619.79753c-4.21576-11.10914-8.69449-21.47064-12.11162-25.7894-2.17217-2.74531-10.51826-6.66582-11.34978-6.86158l-24.47192-5.76141s.13144,18.557-.98807,26.718c-1.43321,10.44788-33.748,12.09551-37.46824,1.42194L428.488,583.63l-12.30211,3.191c-1.83314.4755-10.96168,2.399-14.06109,5.38683-5.33512,5.143-11.6966,18.79494-16.62128,32.3937l19.13483,16.27529c.32533-.86817-4.79446,14.47644-2.53691,20.06338,2.14156,5.29989,12.40084,7.4445,12.40084,7.4445l5.4558,25.50344a11.26278,11.26278,0,0,1-1.32517,8.09932l-5.44792,12.3834,41.0342,3.97145,38.4162-5.31464-4.28211-12.26156a13.61111,13.61111,0,0,1-.50608-7.10989l4.9617-25.27152,2.09825-.41589a11.67209,11.67209,0,0,0,6.48913-3.63691,14.0129,14.0129,0,0,0,3.515-9.93886l-3.73294-17.8963"/><path class="cls-8" d="M552.75417,748.18811c-.1112-.69729-9.62047-10.93128-13.49292-13.69506-2.88977-2.06254-4.5299-8.37912-5.17646-11.45295l-.32133-43.54365L529.81615,657.175s-6.06027-19.64159-12.79077-37.37745l-15.847,16.69921L513.16363,668.69v12.90986l6.428,42.08771c.62807,1.96463,1.8829,6.81171.14111,9.8978a13.59665,13.59665,0,0,0-1.71481,7.92933c1.83587,7.20785,3.76307,5.992,2.88874,7.58219-1.9335,3.51654,3.60626,2.51972,4.1485,1.83,1.38075-1.75633,1.78688-5.50733,1.78688-5.50733l2.6544-.3066a29.3074,29.3074,0,0,1,8.23069,3.90469c2.73622,1.90911,6.36973,3.10736,9.15116,5.05968,3.81828,2.68,5.93732,6.28473,6.49636,6.734,1.80518,1.45082,5.88036,2.1535,6.34533-.902C559.92207,758.5815,552.86537,748.88539,552.75417,748.18811Z"/><path class="cls-9" d="M552.75417,748.18811c-.1112-.69729-9.62047-10.93128-13.49292-13.69506-2.88977-2.06254-4.5299-8.37912-5.17646-11.45295l-.32133-43.54365L529.81615,657.175s-6.06027-19.64159-12.79077-37.37745l-15.847,16.69921L513.16363,668.69v12.90986l6.428,42.08771c.62807,1.96463,1.8829,6.81171.14111,9.8978a13.59665,13.59665,0,0,0-1.71481,7.92933c1.83587,7.20785,3.76307,5.992,2.88874,7.58219-1.9335,3.51654,3.60626,2.51972,4.1485,1.83,1.38075-1.75633,1.78688-5.50733,1.78688-5.50733l2.6544-.3066a29.3074,29.3074,0,0,1,8.23069,3.90469c2.73622,1.90911,6.36973,3.10736,9.15116,5.05968,3.81828,2.68,5.93732,6.28473,6.49636,6.734,1.80518,1.45082,5.88036,2.1535,6.34533-.902C559.92207,758.5815,552.86537,748.88539,552.75417,748.18811Z"/><path class="cls-10" d="M466.6638,967.20627a4.99614,4.99614,0,0,0-.74153,2.65823s-.40314,3.03178-.66407,7.26643a10.1219,10.1219,0,0,1,.84046,2.052c.87311,3.026,1.63748,6.16822,2.81472,9.1023,2.85474,1.89392,5.60853,2.59835,9.01841,3.566,3.01592.57515,7.13973-3.13806,8.83022-4.82856q-.42127-.34507-.88685-.69469c-.829-.62177-3.45068-19.74491-3.52956-20.86778-1.73545-24.70409,12.66536-57.9795,10.369-77.306-.86125-7.24853-5.11833-22.37314-5.11833-22.37314l10.53542-111.61391-9.31154-40.61166-35.59721,6.8637-37.68231-5.484-3.0958,54.90305-.37808,87.6897s2.86648,21.55889,2.95684,22.68475c1.38913,17.30654,5.17445,65.07784-.48682,81.49114-1.51232,4.38457-3.574,8.66769-5.09971,10.25358-4.588,4.769-13.19577,15.31371-17.35556,16.9081-.66238.25386-1.736.56014-3.0336.92423a18.70848,18.70848,0,0,1,2.06591,2.24458c.534.6869,11.19968.41137,14.27513-.36292,3.08356-.77637,25.6743-9.95671,32.58665-11.39832.06825-.01427.135-.01563.20313-.02861a57.36731,57.36731,0,0,0-1.738-7.8387,329.37256,329.37256,0,0,1,1.85917-37.68382c1.31454-11.27964,6.43947-35.21863,8.398-44.76636,2.8345-13.81806-8.88734-32.95016-8.88734-32.95016l16.09711-94.33486,7.41766,106.55853s-3.37113,20.6325-2.10118,27.08251c3.97394,20.18359,7.58833,70.7561,7.58833,70.7561C466.76578,967.11551,466.70811,967.15723,466.6638,967.20627Z"/><path id="_Path_5" data-name="&lt;Path&gt;" class="cls-11" d="M436.96734,974.26575c-5.47349,6.75418-20.90061,11.75737-23.557,13.09822a34.10553,34.10553,0,0,1-15.94394,3.48179c-1.25989-.03859-5.29382-1.03488-5.82716-1.82326-4.41443,1.48443-15.447.76033-13.34,10.28239.17288.78127-.497.044-.497.93006v2.48017c0,1.859.444,3.36594,2.303,3.36594l50.9661-.00844a4.4843,4.4843,0,0,0,4.51057-3.77923,25.3629,25.3629,0,0,1,2.89585-8.70139C443.64142,984.604,440.00569,976.54052,436.96734,974.26575Z"/><path id="_Path_6" data-name="&lt;Path&gt;" class="cls-12" d="M486.767,986.328c-.78532-.78532-2.47113-7.2309-2.70339-8.74335-.14655.11788-.25583,5.86838-1.04541,6.73962-1.03789,1.14521-2.15908,2.34618-3.87719,2.46879-3.1315.22175-8.512-.2805-9.75106-2.60669-1.65467-3.10633-2.45963-11.94183-2.56637-12.91073a13.23078,13.23078,0,0,1-.15123-2.29259c.01713-.64694.15486-1.93168.14007-1.91533-.999.999-8.52386,15.0808-1.60055,22.00411-2.90307,3.72265-2.86543,10.81991.9549,11.80282a2.96467,2.96467,0,0,1-.82431.10088l.22011,2.73531a2.28181,2.28181,0,0,0,2.26631,2.23378l20.75724.13641a2.28181,2.28181,0,0,0,2.29681-2.28176l-.12937-2.37136-1.13942-.40307S495.53571,995.09668,486.767,986.328Z"/><path id="_Path_7" data-name="&lt;Path&gt;" class="cls-6" d="M416.874,711.48a4.81494,4.81494,0,0,0-4.38648,1.938,83.39569,83.39569,0,0,0-14.69884,37.66332c-4.204,31.62936-14.38069,89.62647-17.62029,107.88076a4.83379,4.83379,0,0,0,4.746,5.67773l56.41275.21577,19.74155.68759,51.25832.222a8.64654,8.64654,0,0,0,8.61922-9.70279l-11.59233-94.1774a4.29572,4.29572,0,0,1-.0176-.85331c1.43566-18.86354-11.138-41.1511-15.77014-48.65027a4.81329,4.81329,0,0,0-4.692-2.23879l-38.18627,4.67593a4.8375,4.8375,0,0,1-1.08048.01074Z"/><path id="_Path_8" data-name="&lt;Path&gt;" class="cls-13" d="M416.874,711.48a4.81494,4.81494,0,0,0-4.38648,1.938,83.39569,83.39569,0,0,0-14.69884,37.66332c-4.204,31.62936-14.38069,89.62647-17.62029,107.88076a4.83379,4.83379,0,0,0,4.746,5.67773l56.41275.21577,19.74155.68759,51.25832.222a8.64654,8.64654,0,0,0,8.61922-9.70279l-11.59233-94.1774a4.29572,4.29572,0,0,1-.0176-.85331c1.43566-18.86354-11.138-41.1511-15.77014-48.65027a4.81329,4.81329,0,0,0-4.692-2.23879l-38.18627,4.67593a4.8375,4.8375,0,0,1-1.08048.01074Z"/><path class="cls-14" d="M373.79708,661.19757h94.24649a8.02812,8.02812,0,0,1,8.02812,8.02812v60.47513a8.028,8.028,0,0,1-8.028,8.028H373.79716a8.02809,8.02809,0,0,1-8.02809-8.02809V669.22558A8.028,8.028,0,0,1,373.79708,661.19757Z" transform="translate(-216.26093 189.14691) rotate(-20.27035)"/><path class="cls-15" d="M375.40572,658.74395h94.24649a8.02812,8.02812,0,0,1,8.02812,8.02812v60.47513a8.028,8.028,0,0,1-8.028,8.028H375.4058a8.02809,8.02809,0,0,1-8.02809-8.02809V666.772A8.028,8.028,0,0,1,375.40572,658.74395Z" transform="translate(-215.31124 189.55226) rotate(-20.27035)"/><path class="cls-3" d="M412.69647,528.26416s47.37105-22.025,47.37105-34.78009c0-9.00363-8.87981-11.65176-14.10322-12.43061-2.20432-.32869-9.45238,2.96766-11.33911,4.154-1.95907,1.23178-8.30074,4.09655-8.30074,4.09655-8.56214,6.70217-11.79525,18.82384-12.78082,29.65241Z"/><path class="cls-3" d="M456.475,483.12052s4.23048,31.31766,16.09986,40.50477,8.94657,32.57153,8.94657,32.57153l10.62916-10.62916s4.62486-35.21805-4.003-43.8459S466.44835,473.14713,456.475,483.12052Z"/><path class="cls-16" d="M396.21374,717.04037c-.78461.26574-.6738.22889,0,0Z"/><path class="cls-16" d="M396.2441,717.03006h0l-.03036.01031Z"/><path class="cls-17" d="M427.51186,730.57646c-1.92506-.9501.57234-.6616-3.4285-6.98591a22.53908,22.53908,0,0,0-7.444-5.65783,14.40681,14.40681,0,0,1-4.35-3.48124c-7.882-20.35134-11.18908-44.99152-16.43334-50.185,0-9.79679,6.59465-17.45086,8.81685-23.381l-19.1348-16.2753c-3.712,10.25008-8.65881,22.52111-9.68339,29.04419-.78338,4.98773-.14468,3.57921-.14468,7.522,0,21.78328,24.61174,60.25975,24.99516,60.12916a6.90069,6.90069,0,0,1,.71532,4.13837c-1.04749,3.52757-.99091,14.90889-.54976,15.49757a39.23011,39.23011,0,0,0,3.91255,4.40612c2.70883,2.24828,11.22234-1.946,13.35969-3.144.48884-.274,3.05966.19116,4.12687-3.25142.77741-2.50785-.44168-6.10866-.44168-6.10866l-1.95653-3.1024a23.60065,23.60065,0,0,0,5.6557,3.72225C426.49513,733.81884,431.76883,732.67747,427.51186,730.57646Z"/><path class="cls-1" d="M429.56951,695.42761a3.97951,3.97951,0,0,1,.89558-3.96624c-2.48809-2.99243-7.573-2.20513-8.83263-.30909-3.29319-1.18356-10.17055,2.87152-4.36826,10.547,2.6337,3.48393,6.21725,4.22112,8.24681,2.32555,2.76345.4886,5.43844-2.13688,6.12884-5.87909A3.70812,3.70812,0,0,1,429.56951,695.42761Z"/><path class="cls-1" d="M424.46768,686.99325a7.62376,7.62376,0,0,1-3.29568,2.70427,6.81441,6.81441,0,0,1,4.3395-6.8377A7.624,7.624,0,0,1,424.46768,686.99325Z"/><polygon id="_Path_9" data-name="&lt;Path&gt;" class="cls-18" points="647.772 722.451 649.453 844.754 651.203 976.864 677.138 983.956 683.009 881.98 697.638 786.952 719.283 892.718 740.022 983.956 763.853 981.539 737.695 728.254 691.794 732.997 647.772 722.451"/><polygon id="_Path_10" data-name="&lt;Path&gt;" class="cls-19" points="647.772 722.451 649.453 844.754 650.906 946.544 679.244 947.376 683.009 881.98 697.638 786.952 719.283 892.718 730.451 947.376 760.877 942.558 737.695 728.254 691.794 732.997 647.772 722.451"/><rect class="cls-20" x="647.77241" y="944.9526" width="34.0727" height="13.88985"/><rect class="cls-21" x="727.49942" y="940.43155" width="36.62526" height="13.88916" transform="translate(-132.1747 121.00067) rotate(-8.52327)"/><path class="cls-22" d="M754.9035,721.57694c-1.11185-.87432-30.81723-41.81169-40.35388-52.81174-6.88954-7.94785-72.28286-85.87265-73.85224-88.257l11.54975-2.80388c1.58815,2.40973,64.92,75.99614,71.25386,83.3014,9.95193,11.48216,43.28791,59.49834,44.07008,60.41585a3.75381,3.75381,0,0,0-.61307-.57324Z"/><polygon class="cls-4" points="715.028 577.704 710.417 559.372 673.887 559.372 669.568 577.704 640.697 583.583 640.697 636.153 746.671 636.153 746.671 583.583 715.028 577.704"/><path class="cls-23" d="M591.2269,578.45512,569.464,588.2127c-1.42139.63729-2.88252-.39529-3.24695-2.29463L554.98771,527.393c-.36443-1.89934.50036-3.97477,1.92175-4.61206l21.76293-9.75759c1.42139-.63729,2.88251.39529,3.24694,2.29463l11.22932,58.52512C593.51308,575.7424,592.64829,577.81783,591.2269,578.45512Z"/><g id="_Group_" data-name="&lt;Group&gt;"><path class="cls-24" d="M709.1524,560.10974a1.57464,1.57464,0,0,0,1.09981.92441,2.5212,2.5212,0,0,1,1.2814.72517"/></g><path id="_Path_11" data-name="&lt;Path&gt;" class="cls-25" d="M647.9683,722.45125S672.706,733.40479,691.7942,732.997c17.20433-.36751,41.09084-3.991,45.90107-4.74313.342-.05347-1.52922-9.41985-1.52922-9.41985a.475.475,0,0,0-.44571-.22608c-3.58508.30693-38.92131,4.55257-43.10912,4.26039-9.555.71155-40.9722-7.723-43.08977-7.77416Z"/><path class="cls-26" d="M755.03986,578.72989,735.47654,572.86l-28.40961,1.7839L680.116,627.90367l-10.79682-53.06438-34.39259,6.90959-6.62266,2.82438-3.506,8.18089L604.638,632.61391,585.53679,589.4918a26.57139,26.57139,0,0,1-1.30491-7.56229c5.959-2.81264,3.15459-14.22226,6.10329-15.48728,10.47288-4.49279-3.63646-28.74255-4.68853-30.23532,3.14639-10.40066-2.71436-7.75434-6.07659-6.14431-.88206.42253-16.82114,13.32508-18.99491,25.715-.79923-3.43-2.22653-10.86871-2.93617-15.31131-1.65908-.63227-2.73463,1.33755-2.73463,4.05417,0,1.23221-.37057,10.837-.67022,13.32026a45.30371,45.30371,0,0,0,.67022,17.89523c2.12842,6.60126,9.58295,21.10178,9.58295,21.10178l.11709-.03877c1.68144,9.46151,14.04175,59.75438,26.98648,72.69912,6.368,6.368,17.84894-2.11295,17.84894-2.11295s27.43457-27.88337,27.82413-25.93557,9.88516,24.98079,9.88516,24.98079l3.94432,37.8917-1.36346,10.755,44.24447,9.34956L736.213,718.5831l-1.55823-29.21719,7.74259-28.43825L755.24333,623.14l14.8193-39.55722Z"/><path class="cls-27" d="M755.03986,578.72989,735.47654,572.86l-28.40961,1.7839L680.116,627.90367l-10.79682-53.06438-34.39259,6.90959-6.62266,2.82438-3.506,8.18089-18.37422,36.32929c.22437.35321.46451.73054.72459,1.1357a47.47926,47.47926,0,0,1,20.6252,20.27119c5.05091-5.47215,9.33331-9.82678,9.49046-9.04074.38956,1.94779,9.88516,24.98079,9.88516,24.98079l3.94432,37.8917-10.396,45.35085,52.55473,5.73111,47.432-10.72573-6.02929-55.3124,7.74259-28.43825L755.24333,623.14l14.8193-39.55722Z"/><path id="_Path_12" data-name="&lt;Path&gt;" class="cls-1" d="M703.46252,560.10974s8.45263,14.22977-1.3304,21.46784c-6.85645,3.31129-5.23022,13.74865-5.23022,13.74865s5.05885-11.09273,7.23233-10.50838,5.17287,15.65356,5.17287,15.65356,14.66923-15.9721,14.03144-24.5425"/><path id="_Path_13" data-name="&lt;Path&gt;" class="cls-28" d="M724.89464,520.457s.30071-7.513,2.06739-9.1395a4.64278,4.64278,0,0,1,5.26245-.41766c.45106.37893-3.87166-.76064-4.88656,2.97362,0,0,3.15266-2.57608,3.68371,3.47622.0489.55723-2.51845-5.95473-4.661-.2619s2.0298,4.6472,3.383,4.18248-1.38434,2.94328-2.48087,2.67215C725.3833,523.47767,724.89464,520.457,724.89464,520.457Z"/><path id="_Path_14" data-name="&lt;Path&gt;" class="cls-29" d="M682.47857,721.05407c1.06793-.84293,18.38926-.39656,18.91966.64166s.07322,11.34911-.67329,11.81586c-.9362.58535-17.59745.14132-18.54489-.56635S681.41064,721.897,682.47857,721.05407Z"/><path id="_Path_15" data-name="&lt;Path&gt;" class="cls-30" d="M699.47759,722.07927c-3.51994-1.46684,12.70078,15.93338-16.74074,10.236.88165-2.41043.907-10.236.907-10.236S698.51417,720.19011,699.47759,722.07927Z"/><path id="_Path_16" data-name="&lt;Path&gt;" class="cls-31" d="M651.20322,972.189l-10.41219,6.0199s-14.41115,7.19056-20.2546,8.94359c-5.21663,1.565-22.47843,4.90425-19.41062,11.47813.38565.82639-2.19129.04848-2.19129,1.02261v6.4278h44.33134l12.41734-2.03954v2.03954h23.93322s.4212-3.14277.52907-7.29906c.02421-.93277-1.365-.30925-1.38065-1.32-.06272-4.049-.258-10.13828-1.62729-13.50613-1.14835-1.979-5.21-1.195-8.30658-2.85554-3.4515-1.85083-5.88232-6.88617-9.48276-7.65805A68.56252,68.56252,0,0,0,651.20322,972.189Z"/><path id="_Path_17" data-name="&lt;Path&gt;" class="cls-31" d="M737.75091,982.43942s-4.77215,5.50258-1.753,17.18949a6.12394,6.12394,0,0,1-1.21794.10535l.203,6.82256h39.4572v-6.52359l-1.68351-.42088s-.16918-16.4142-7.44993-20.20209-21.62-3.53437-26.46013.25352A4.06187,4.06187,0,0,0,737.75091,982.43942Z"/><path class="cls-32" d="M601.03162,998.94541c.31219-.00659.60332-.0452.91969-.0452l40.13234.0452,14.201-1.45314,22.4803-.0303c-.06273-4.049-.25815-10.13833-1.6274-13.50619-1.14825-1.979-5.21-1.19505-8.3065-2.85558-3.4515-1.85081-5.8823-6.88611-9.48274-7.658a68.58466,68.58466,0,0,0-8.145-1.25328l-10.41224,6.02s-14.41109,7.19058-20.25462,8.9436c-5.21658,1.565-22.47842,4.90422-19.41053,11.47813A.2128.2128,0,0,1,601.03162,998.94541Z"/><path class="cls-32" d="M772.74611,999.22962c-.07318-2.38158-.78394-16.35695-7.43941-19.81939-7.28081-3.788-21.62-3.53433-26.46021.25349a4.06224,4.06224,0,0,0-1.09565,2.77564s-4.647,5.38482-1.84309,16.79026Z"/><path class="cls-33" d="M677.339,720.24832c-.00343.13248-.039.25285-.039.38641v66.78911c0,.13357.03561.25394.039.38642Z"/><polygon id="_Path_18" data-name="&lt;Path&gt;" class="cls-34" points="702.314 619.694 727.782 619.694 727.782 646.471 713.864 650.277 701.025 645.422 701.025 619.694 702.314 619.694"/><path class="cls-35" d="M568.13777,535.26043l-.00333.00134a1.59928,1.59928,0,0,1-2.195-1.302L564.65,527.41915a2.52487,2.52487,0,0,1,1.39624-2.74954l.00334-.00135a1.59928,1.59928,0,0,1,2.19495,1.302l1.28947,6.54066A2.52486,2.52486,0,0,1,568.13777,535.26043Z"/><ellipse class="cls-23" cx="566.39108" cy="526.81998" rx="1.43267" ry="1.16827" transform="translate(-14.50136 1037.60577) rotate(-84.25252)"/><ellipse class="cls-23" cx="567.57249" cy="532.97643" rx="1.79133" ry="1.47381" transform="translate(-27.90804 1034.57919) rotate(-83.30858)"/><path class="cls-36" d="M815.23194,649.25668,778.05823,593.168l-7.9956-9.58519L755.24333,623.14,786.375,656.34464l-33.96669,34.10469-16.68313,5.96739s-5.164,7.01414-4.55133,10.869c.88543,5.57091,8.242,16.74763,13.34776,19.8678,1.72535,1.05431,5.84611,2.21913,7.84971,1.94779,3.54334-.47979,10.37332-4.11272,12.466-7.01221.85487-1.18444.91406-4.70381,0-5.84338-.56182-.70046-3.99884.91117-4.38647.10133-1.11029-2.319,5.326-2.921,4.91122-6.7583-.431-.98306-.154-2.279.67488-3.80353,0,0,49.27408-28.12513,53.94915-44.86844C820.81336,657.95422,815.23194,649.25668,815.23194,649.25668Z"/><path class="cls-37" d="M778.05837,593.168l-7.99561-9.5852-15.023-4.85291-19.56347-5.87-28.40918,1.78393L680.116,627.90361l-10.79687-53.06433-34.39258,6.90954-6.62256,2.82446-3.50634,8.18091-18.374,36.32923c.22461.35315.46485.73059.72461,1.13574a47.47719,47.47719,0,0,1,20.625,20.27112c5.05127-5.47217,9.3335-9.82666,9.49072-9.04078.38965,1.94788,9.88526,24.981,9.88526,24.981l3.94433,37.8916-9.83984,45.41626,53.793,5.66577,45.63769-10.45336-6.02929-55.58484,7.74218-28.43824,12.8462-37.78772L771.84255,643.323c8.26025-7.614,16.32861-15.395,23.79345-23.6333Z"/><path class="cls-38" d="M759.702,799.09686l-68.09248,7.54724c-7.75864.86-14.30944-5.48184-14.30944-14.12035V721.48427c0-8.63851,6.5508-14.9803,14.30944-14.12035l68.09248,7.54723c5.4057.59916,9.7154,6.736,9.7154,13.65271v56.88029C769.41741,792.36088,765.10771,798.4977,759.702,799.09686Z"/><path class="cls-39" d="M696.11189,712.67763a5.232,5.232,0,0,0-4.5023-5.31381h0C683.851,706.50394,677.3,712.84567,677.3,721.48425v71.03953c0,8.63839,6.55094,14.98031,14.30957,14.12024h0a5.232,5.232,0,0,0,4.5023-5.31381Z"/><path class="cls-27" d="M795.63612,619.68981,778.05823,593.168l-7.9956-9.58519L755.24333,623.14l16.59917,20.183C780.10284,635.709,788.1713,627.928,795.63612,619.68981Z"/><path class="cls-33" d="M696.54818,716.92766v32.935a8.31289,8.31289,0,0,0,8.31289,8.31289h56.24348a8.31288,8.31288,0,0,0,8.31288-8.31289v-22.572c0-6.50288-4.30964-12.27251-9.71545-12.83586l-68.0924-7.09569a12.97482,12.97482,0,0,0-4.28362.32189C691.9969,707.84406,696.54818,710.91241,696.54818,716.92766Z"/><path class="cls-22" d="M680.56,726.75647c-.73451-1.20876-3.82537-6.7104-7.55-21.39771-4.09475-16.1332-10.94537-43.13513-16.01754-56.78141-3.66387-9.8595-9.67587-37.7174-13.65206-56.151-1.09309-5.05916-2.00978-9.30718-2.64308-12.09051l11.54975-2.63151c.642,2.81369,1.56734,7.108,2.672,12.225,3.66677,17.00218,9.8089,45.45867,13.17781,54.52149,5.29195,14.24343,11.97194,40.573,16.39346,57.99595,1.61072,6.34455,7.89024,24.44853,7.80638,24.30973Z"/><circle class="cls-22" cx="737.59202" cy="749.80917" r="2.03581"/><path id="_Path_19" data-name="&lt;Path&gt;" class="cls-34" d="M673.15739,594.50717s-.89984-14.69722-2.69013-18.93142c-1.43069-3.3837,1.48232-10.37621,1.48232-10.37621s-8.4787,4.121-11.36443,11.035c-.52986,5.87784-3.86822,14.57729-2.5178,19.09167,1.59505-4.48,1.59505-12.66081,5.36662-12.66081C667.63082,582.66542,673.15739,594.50717,673.15739,594.50717Z"/><path id="_Path_20" data-name="&lt;Path&gt;" class="cls-34" d="M696.9019,595.32623s5.05885-11.09273,7.23233-10.50838,5.17287,15.65356,5.17287,15.65356,14.66923-15.9721,14.03144-24.5425-19.876-15.81917-19.876-15.81917,8.45263,14.22977-1.3304,21.46784C695.27567,584.88887,696.9019,595.32623,696.9019,595.32623Z"/><path class="cls-1" d="M555.21665,528.58612l-.12873-.67089c.93115-.43811,22.7481-10.76752,25.27262-11.18249a3.28491,3.28491,0,0,1,1.85661.13736l.13538.70559a4.62161,4.62161,0,0,0-1.87054-.11133C578.54161,517.78245,563.0736,524.87742,555.21665,528.58612Z"/><path class="cls-40" d="M587.33388,580.20059c6.415,13.96078,17.5652,35.32393,25.48432,52.95315,3.86958,8.6143,9.10695,17.35749,17.65658,21.36792,8.3213,3.90334,18.5277,2.41551,26.33859-2.42909s13.42619-12.65589,17.16872-21.05074,5.345-18.03345,7.35633-27.002"/><path class="cls-41" d="M681.33842,604.03984a65.28981,65.28981,0,0,1-12.28783-31.23636"/><path class="cls-41" d="M681.33842,604.03984c15.12879-7.60119,26.87225-20.6823,33.82123-36.12154,6.49074-14.42113,10.60065-26.93962,12.2468-42.66822"/><ellipse class="cls-42" cx="727.96356" cy="518.92335" rx="2.81192" ry="3.30713"/><path id="_Path_21" data-name="&lt;Path&gt;" class="cls-43" d="M735.07384,506.99287c-1.97071-.55857-6.14333-1.25676-8.0799,0-.00546.00353.22064-2.85382.21521-2.85016-.04684-4.97651-.26171-10.00734-.69863-14.8501a6.81981,6.81981,0,0,0-4.52464-5.41071,113.361,113.361,0,0,0-33.06279-3.79476c-17.22419.35451-16.24764-1.81071-23.74709-.13262-4.99247,1.1171-6.92372,16.00422-6.0435,18.15323s.26275,12.28835,1.051,26.53166,8.67112,34.91011,11.82425,41.61285,26.69473,6.16723,32.73822,4.49154,15.93948-21.73366,18.23746-26.834c1.34283-2.98041,1.97361-4.24992,2.75835-12.64688,1.41354.86584,3.83751-.02963,6.70442-.74063,3.94142-.9775,4.96543-9.298,4.96543-13.62682S738.08754,507.84705,735.07384,506.99287Z"/><path id="_Path_22" data-name="&lt;Path&gt;" class="cls-44" d="M723.34,519.55049c1.051,1.25676-.02282-11.77638,3.3502-12.63745a21.00653,21.00653,0,0,1,8.25158.05456c.36617.09489,1.09411.84142,1.12442.76,1.28754-3.4591,1.20425-31.35652-2.67559-33.90933-4.13848-2.723-5.94518-10.93955-8.93539-13.24361s-13.98793-4.35191-16.18011-4.60209c-6.60625-.16679-10.95587-2.096-14.69281-2.55421-2.575-.31572-13.86309-2.38365-22.269,1.339-9.4594,4.18921-16.5663,16.9847-17.14516,23.98323-.78829,9.53045-.93158,11.2851,2.26631,22.30754,2.58272,8.90208,3.43214,13.19636,3.43214,13.19636l.13461-11.50607-.21987-11.74517s10.00767.784,13.30561,1.33107a61.82947,61.82947,0,0,0,17.33-.375c6.10778-1.30657,18.31826-8.57083,23.54443-5.85056.85085.44288,2.28723,21.75117,4.846,25.4224C720.13162,513.42117,720.52888,516.18916,723.34,519.55049Z"/><rect class="cls-45" x="726.71419" y="517.12075" width="2.49875" height="11.45114" rx="1.24937" ry="1.24937" transform="translate(77.92357 -94.20086) rotate(7.82136)"/></g></g></svg>