<svg xmlns="http://www.w3.org/2000/svg" xmlns:xlink="http://www.w3.org/1999/xlink" viewBox="0 0 1056.5212 1463.33051"><defs><style>.cls-1{fill:#e3e5e5;}.cls-2,.cls-4{fill:#95d6ef;}.cls-2{opacity:0.78;}.cls-3{stroke:#a5a5a5;stroke-miterlimit:10;stroke-width:6px;fill:url(#linear-gradient);}.cls-4,.cls-6{font-size:80.35249px;font-family:Helvetica-Bold, Helvetica;font-weight:700;letter-spacing:0.01999em;}.cls-5{font-size:56.05987px;letter-spacing:0.02em;}.cls-6{fill:#478a9e;}.cls-7{fill:#d6a374;}.cls-8{fill:#474751;}.cls-9{fill:url(#linear-gradient-2);}.cls-10{fill:url(#linear-gradient-3);}.cls-11{fill:url(#radial-gradient);}.cls-12{fill:url(#linear-gradient-4);}.cls-13{fill:url(#linear-gradient-5);}.cls-14{fill:#747288;opacity:0.26;}.cls-15{fill-rule:evenodd;fill:url(#radial-gradient-2);}.cls-16{fill:url(#Red_Orange);}.cls-17{fill:url(#Red_Orange-2);}</style><linearGradient id="linear-gradient" x1="28.10904" y1="612.54744" x2="492.10904" y2="766.54744" gradientUnits="userSpaceOnUse"><stop offset="0" stop-color="#fff"/><stop offset="1" stop-color="#e3e3e3"/></linearGradient><linearGradient id="linear-gradient-2" x1="645.58162" y1="616.24375" x2="719.08162" y2="715.24375" gradientUnits="userSpaceOnUse"><stop offset="0.00541" stop-color="#f2ddc9"/><stop offset="1" stop-color="#f2b983"/></linearGradient><linearGradient id="linear-gradient-3" x1="643.55257" y1="599.79722" x2="720.05257" y2="655.79722" gradientUnits="userSpaceOnUse"><stop offset="0.00541" stop-color="#d3d65a"/><stop offset="0.28333" stop-color="#d3c94b"/><stop offset="0.66308" stop-color="#d3bd3e"/><stop offset="1" stop-color="#d3b939"/></linearGradient><radialGradient id="radial-gradient" cx="569.42238" cy="1060.13791" r="181.48546" gradientTransform="translate(1547.0434 685.91685) rotate(102.00783) scale(1 0.82855)" gradientUnits="userSpaceOnUse"><stop offset="0" stop-color="#595959"/><stop offset="1"/></radialGradient><linearGradient id="linear-gradient-4" x1="465.211" y1="759.22728" x2="562.54433" y2="855.89394" gradientUnits="userSpaceOnUse"><stop offset="0.00541" stop-color="#f2d1ae"/><stop offset="0.29428" stop-color="#f2cea9"/><stop offset="0.63119" stop-color="#f2c69b"/><stop offset="0.99097" stop-color="#f2b984"/><stop offset="1" stop-color="#f2b983"/></linearGradient><linearGradient id="linear-gradient-5" x1="822.00745" y1="762.43292" x2="883.05104" y2="832.19703" xlink:href="#linear-gradient-2"/><radialGradient id="radial-gradient-2" cx="602.7829" cy="768.15368" r="211.16113" gradientUnits="userSpaceOnUse"><stop offset="0" stop-color="#44e4e1"/><stop offset="1" stop-color="#4480c9"/></radialGradient><linearGradient id="Red_Orange" x1="541.45165" y1="1262.42219" x2="609.95165" y2="1291.92219" gradientUnits="userSpaceOnUse"><stop offset="0" stop-color="#f37e5f"/><stop offset="0.5" stop-color="#ec1c24"/><stop offset="1" stop-color="#cf232a"/></linearGradient><linearGradient id="Red_Orange-2" x1="712.8488" y1="1256.2836" x2="807.3488" y2="1292.7836" xlink:href="#Red_Orange"/></defs><title>DCG CHARACTER BOTTOM</title><g id="Layer_2" data-name="Layer 2"><g id="Layer_1-2" data-name="Layer 1"><path class="cls-1" d="M4.00023,1060.61569l522.20373,367.917c86.03786,60.6177,204.9257,40.01059,265.5434-46.02728l229.976-326.4169c60.6177-86.03787,40.01059-204.9257-46.02728-265.54341L.00008,103.12157Z"/><path class="cls-2" d="M.00006,954.67583l516.41854,363.841c85.31525,60.10859,203.20458,39.67455,263.31317-45.6407l231.81966-329.03372c60.10859-85.31525,39.67455-203.20457-45.64071-263.31317L.00005,0Z"/><path class="cls-3" d="M0,473.49045H500.02193c4.5762,0,8.64244,3.47668,9.03665,7.73195l37.91038,409.217a8.05446,8.05446,0,0,1-8.13678,8.95258L0,899.392"/><text class="cls-4" transform="translate(159.78955 597.98496)">GET<tspan x="-101.41797" y="96.42285">NOTICED</tspan><tspan class="cls-5"><tspan x="-93.83105" y="163.69531">In the Drupal</tspan><tspan x="-74.45313" y="230.9668">Community</tspan></tspan></text><text class="cls-6" transform="translate(159.78955 597.98496)">GET<tspan x="-101.41797" y="96.42285">NOTICED</tspan><tspan class="cls-5"><tspan x="-93.83105" y="163.69531">In the Drupal</tspan><tspan x="-74.45313" y="230.9668">Community</tspan></tspan></text><polygon id="_Path_" data-name="&lt;Path&gt;" class="cls-7" points="663.435 722.149 709.485 722.149 711.789 744.894 715.474 767.34 654.303 767.839 663.435 722.149"/><g id="_Group_" data-name="&lt;Group&gt;"><path class="cls-8" d="M707.8906,723.09141a1.9926,1.9926,0,0,0,1.38639,1.18123,3.16779,3.16779,0,0,1,1.6153.92665"/></g><path id="_Path_2" data-name="&lt;Path&gt;" class="cls-9" d="M738.0454,655.21713c-1.45731-2.13474-7.74414-1.60593-10.18534,0-.00688.00451.27815-3.6467.27129-3.642-.059-6.35912-.3299-12.78767-.88067-18.97588a8.69453,8.69453,0,0,0-5.70365-6.914c-15.13293-4.31087-29.69927-5.099-41.67818-4.84906-21.7124.453-20.48139-2.31378-29.935-.16947-6.29339,1.42747-8.72788,20.45066-7.61829,23.19673s.33121,15.7024,1.3249,33.90293c.77358,14.16889-2.35844,27.63182,5.88463,39.15125,2.34549,3.27775,9.26117,9.21011,11.1125,13.42065,4.19471,9.54017,27.83134,8.3031,35.45472,6.18,4.912-1.36794,12.62339-11.37738,15.73644-13.42693,11.14988-7.34078,11.26992-14.73125,12.57819-20.15106,1.12257-4.65049.8855-5.9804,1.87473-16.71028,1.78187,1.1064,4.57077,5.25519,8.45144-.94639,2.71757-4.34288,6.2593-11.88123,6.2593-17.41275S740.86779,659.35149,738.0454,655.21713Z"/><path id="_Path_3" data-name="&lt;Path&gt;" class="cls-10" d="M723.254,671.26362c1.15972-1.729-.02877-15.04821,4.22318-16.14851,4.11752-1.06551,9.51677-.16274,10.40174.06973.46159.12125,1.38983,1.07848,1.41742.97114C743.22493,640.87445,747.596,628.27,747.596,628.27c-2.24008-4.9214-7.04973-11.70032-11.67245-15.44437-2.7508-2.22793-8.18866.96724-8.18866-2.49851,0-5.22685,0-8.46252-3.07509-14.42457-2.19248-4.25084-16.32505-15.19427-35.17087-18.66064,4.31061,5.58783,4.26481,3.71527,5.92154,11.68791-7.36847-9.21713-20.83935-13.29174-23.64294-13.64019,2.47385,6.26289,3.73549,5.818,4.70492,10.46415-6.7804-3.08369-21.91089-7.96068-27.89717-5.27329,2.91642,4.42473,3.31828,11.35244.79014,13.7778-4.05145,3.88675-14.8551,3.2989-18.3092,7.41041,4.412,3.71145,5.25629,14.32247,5.00135,17.44682-.99369,12.17829-1.17432,14.42043,2.85687,28.50523,3.25571,11.37533,4.32647,16.86269,4.32647,16.86269l.16968-14.7028-.27715-15.00832s7.92246-11.90211,10.43794-13.42662c1.98739-1.20444-6.21057,14.36441-6.21057,14.36441l12.54536-13.65039s-9.50348,11.53347-9.06744,14.58718c10.09695-10.9797,15.62443-11.83492,20.49489-15.3012-3.33505,4.4284-4.05788,7.17231-11.67588,15.97034-2.4586,2.83945,14.475-7.2787,21.24015-12.7136,1.97423-1.586-10.525,11.81435-10.525,11.81435,15.12937-6.47349,18.394-11.19333,25.44089-12.01413-7.96706,3.29569-14.06179,14.79519-14.06179,14.79519s26.31247-17.32417,29.67955-10.67984c4.9848,31.71332,7.97157,21.75288,5.4826,47.26923C716.62811,678.71974,719.90093,676.26261,723.254,671.26362Z"/><polygon id="_Path_4" data-name="&lt;Path&gt;" class="cls-11" points="764.951 941.582 758.531 1089.726 764.951 1258.54 731.35 1267.602 713.246 1144.296 685.188 1040.593 643.126 1151.016 613.785 1264.513 577.893 1260.033 628.294 938.674 695.551 946.92 764.951 941.582"/><path id="_Path_5" data-name="&lt;Path&gt;" class="cls-12" d="M438.968,773.52122c1.04986.18431,6.75552,1.48674,13.64238,2.20973,5.01675.52675,10.24452,1.36742,15.1714,1.86983a40.89306,40.89306,0,0,0,13.48-1.01986l3.20562-2.48537s-3.97364-13.7193-2.70248-14.17259,5.93226-1.82344,7.62718.45329,1.69492,3.73948,9.32218,12.23849c4.661,6.3458,10.74867,17.56744,10.74867,17.56744l56.96472,38.82806,9.4858-17.74326s22.79857,24.17729,27.63923,29.94275c-6.58188,6.80063-17.34668,19.10166-23.2,25.8548a14.33157,14.33157,0,0,1-10.42472,4.93919l-4.5446.13162a15.94937,15.94937,0,0,1-11.05129-4.01585L488.159,809.36761l-.46176.41582s-15.93906-5.3829-22.9569-6.17918-25.41155-11.9563-26.06363-12.83014-6.24636-6.08849-6.9534-8.074C430.09613,778.13118,435.57821,772.92629,438.968,773.52122Z"/><path id="_Path_6" data-name="&lt;Path&gt;" class="cls-13" d="M948.87337,784.74038a122.3425,122.3425,0,0,1-12.69032,1.50847c-4.65081.26931-9.5134.84126-14.08007,1.09087a34.94049,34.94049,0,0,1-12.36171-1.70785l-2.81533-2.64553s4.42128-13.49493,3.27538-14.01254-5.3639-2.1241-7.05154.06242-1.76874,3.647-9.26644,11.74281a199.56622,199.56622,0,0,0-10.876,16.99058L828.37683,833.624l-11.19822-14.032s-30.262,17.17083-35.041,22.6798c5.6864,7.12686,26.28334,21.5935,31.3012,28.63568a12.84464,12.84464,0,0,0,9.32976,5.46486l4.17934.36389a14.05647,14.05647,0,0,0,10.40346-3.44435l64.21824-55.27649.40234.43881s14.982-4.55928,21.49124-4.99534,24.07285-10.638,24.722-11.47715,6.09191-5.75959,6.85334-7.70587C956.79088,789.79708,952.02918,784.31977,948.87337,784.74038Z"/><line id="_Path_7" data-name="&lt;Path&gt;" class="cls-14" x1="797.30084" y1="891.74325" x2="800.48366" y2="894.73002"/><path id="_Path_8" data-name="&lt;Path&gt;" class="cls-15" d="M616.43531,871.86982s1.65016-40.75695,1.15914-43.246c-.24829-1.25831-8.6547,7.78942-16.90733,17.04407a62.417,62.417,0,0,0-12.26448-14.04946c-3.93552-4.403-12.72169-9.60144-17.20794-13.51861l25.37162-51.18148,11.48107-7.81914,46.56012-15.43108,6.31029-3.995a.03687.03687,0,0,1,.04533.00463l.254.24523a32.78837,32.78837,0,0,0,46.5171-.97448l3.25019-3.41246,6.27954,2.71551,48.60416,15.79824,15.943,9.25327,12.416,14.57738,28.104,43.0674c-.15.2224-14.65046,15.44983-17.46857,16.94633L786.846,849.59276l-16.0036-16.50207-6.79585,25.986-1.89973,32.76719,11.844,105.37109-46.95946,6.01292a190.57865,190.57865,0,0,1-76.531-5.7808l-40.0386-11.43252,2.24008-69.03195Z"/><path id="_Path_9" data-name="&lt;Path&gt;" class="cls-16" d="M574.28131,1244.87782l-6.25483,13.54847s-13.37405,12.53787-20.74016,14.77795c-6.576,1.99978-21.21952,4.06814-26.58785,11.31752l-1.16027,1.56683c0,4.53626,5.32858,7.95351,13.8384,7.95351h35.445a12.61106,12.61106,0,0,0,4.49636-.82881l7.83385-.47136,5.64736,1.30017h21.36155c5.11455,0,11.04954-.5183,11.18864-5.631a4.51677,4.51677,0,0,0-3.454-5.38277c5.88423-3.97288,1.00052-20.32456-.72557-24.62809-1.44758-2.52885-7.69746,5.4338-11.79683,3.72067-13.99934-5.85031-17.4301-13.98691-19.76943-17.768A5.293,5.293,0,0,0,574.28131,1244.87782Z"/><path id="_Path_10" data-name="&lt;Path&gt;" class="cls-17" d="M772.35331,1247.3668l6.67969,13.54847s14.28249,12.53786,22.149,14.77794c7.02263,1.99979,22.66086,4.06815,28.39384,11.31752l1.23909,1.56684c0,4.53626-5.69053,7.95351-14.77839,7.95351H778.18385a14.28152,14.28152,0,0,1-4.80179-.82881l-8.366-.47136-6.03095,1.30017H736.17259c-5.462,0-11.80009-.51831-11.94863-5.631-.00154-.05284-1.0089-4.12108,3.68863-5.38276-6.28392-3.97289-1.06848-20.32456.77485-24.62809,1.54591-2.52885,8.22032,5.4338,12.59815,3.72067,14.95025-5.85031,18.614-13.98691,21.11227-17.768A5.83755,5.83755,0,0,1,772.35331,1247.3668Z"/></g></g></svg>