<svg xmlns="http://www.w3.org/2000/svg" viewBox="0 0 122 120"><defs><style>.cls-1{fill:#fff;stroke:#207dcc;stroke-linecap:round;stroke-linejoin:round;stroke-width:4px;}</style></defs><title>DCG ICON CHIP</title><g id="Layer_2" data-name="Layer 2"><g id="Layer_1-2" data-name="Layer 1"><rect class="cls-1" x="14.87634" y="13.58337" width="93.06206" height="93.06206" rx="18.27014" ry="18.27014"/><rect class="cls-1" x="30.55385" y="29.26088" width="61.70704" height="61.70704" rx="12.11446" ry="12.11446"/><rect class="cls-1" x="2" y="31.5" width="20" height="11"/><rect class="cls-1" x="2" y="47.5" width="20" height="11"/><rect class="cls-1" x="2" y="63.5" width="20" height="11"/><rect class="cls-1" x="2" y="79.5" width="20" height="11"/><rect class="cls-1" x="100" y="31.5" width="20" height="11"/><rect class="cls-1" x="100" y="47.5" width="20" height="11"/><rect class="cls-1" x="100" y="63.5" width="20" height="11"/><rect class="cls-1" x="100" y="79.5" width="20" height="11"/><rect class="cls-1" x="27" y="6.5" width="20" height="11" transform="translate(25 49) rotate(-90)"/><rect class="cls-1" x="43" y="6.5" width="20" height="11" transform="translate(41 65) rotate(-90)"/><rect class="cls-1" x="59" y="6.5" width="20" height="11" transform="translate(57 81) rotate(-90)"/><rect class="cls-1" x="75" y="6.5" width="20" height="11" transform="translate(73 97) rotate(-90)"/><rect class="cls-1" x="27" y="102.5" width="20" height="11" transform="translate(-71 145) rotate(-90)"/><rect class="cls-1" x="43" y="102.5" width="20" height="11" transform="translate(-55 161) rotate(-90)"/><rect class="cls-1" x="59" y="102.5" width="20" height="11" transform="translate(-39 177) rotate(-90)"/><rect class="cls-1" x="75" y="102.5" width="20" height="11" transform="translate(-23 193) rotate(-90)"/></g></g></svg>