<svg xmlns="http://www.w3.org/2000/svg" viewBox="0 0 113.20202 124.75466"><defs><style>.cls-1{fill:#fff;stroke:#207dcc;stroke-linecap:round;stroke-linejoin:round;stroke-width:4px;}</style></defs><title>DCG ICON DRUPAL</title><g id="Layer_2" data-name="Layer 2"><g id="Layer_1-2" data-name="Layer 1"><g id="Layer_2-2" data-name="Layer 2"><g id="Layer_1-2-2" data-name="Layer 1-2"><path class="cls-1" d="M76.5342,21.79779a20.33272,20.33272,0,0,1-6.65827-4.05286C60.86768,9.41783,52.96631-.57809,54.55,2.6063c.47681.98767-3.1333,14.01472-14.27016,17.59078a55.17337,55.17337,0,0,0-36.05,36.79929C-4.1654,84.566,11.82467,110.97775,40.77367,120.12222A53.96434,53.96434,0,0,0,108.7241,85.37973q.1641-.50744.31813-1.018C116.94361,58.51193,102.50316,31.58936,76.5342,21.79779Z"/><path class="cls-1" d="M21.80356,31.52125c-.579.45977-2.11158,1.95831-2.6565,2.45215-7.78217,7.084-7.101,10.91547,9.67237,4.9043C39.34325,35.0973,53.57935,26.95752,54.1413,20.48657c.18731-2.11158-1.34528-1.82209-.8855-3.40577.34057-1.14093,1.158-2.50324,2.23077-5.56843a9.74046,9.74046,0,0,0-.28949-6.98181C53.00037,12.56816,48.8283,19.26049,39.769,22.08728A50.79674,50.79674,0,0,0,21.80356,31.52125Z"/><path class="cls-1" d="M81.40445,74.96178c6.81153.71521,10.37055-5.72169,20.0259-9.04231,11.92017-1.70288,10.50678,26.47982-.39167,27.24612-6.81153.5279-8.76984-13.86146-17.76106-13.09516C77.04507,79.91717,66.24879,100.505,46.20586,96.4181c-19.73641-3.96772-10.91547-29.08524,6.18147-30.3624C65.7209,65.42563,76.72152,74.72338,81.40445,74.96178Z"/><path class="cls-1" d="M87.654,98.7c1.70289,1.158,2.57135-.42572,2.35-.90252-1.46448-3.16737-4.17206-6.81154-8.1568-6.36879a14.1169,14.1169,0,0,0-8.872,5.53437c-1.22608,1.14093,1.32825,3.30359,2.46918,2.17969C75.42733,99.15974,82.886,87.9718,87.654,98.7Z"/><path class="cls-1" d="M58.50068,109.73464a25.54327,25.54327,0,0,0,16.43282,4.06989,30.65185,30.65185,0,0,0,16.6031-7.30537c2.384-1.99237-.15326-3.6612-2.52026-1.70288A23.3806,23.3806,0,0,1,61.021,106.38c-2.62244-1.70288-5.10865,1.70288-2.52027,3.40576Z"/></g></g></g></g></svg>