<svg xmlns="http://www.w3.org/2000/svg" viewBox="0 0 153.9925 101.92898"><defs><style>.cls-1{fill:#fff;stroke:#207dcc;stroke-linecap:round;stroke-linejoin:round;stroke-width:4px;}</style></defs><title>DCG FRONTEND</title><g id="Layer_2" data-name="Layer 2"><g id="Layer_1-2" data-name="Layer 1"><rect class="cls-1" x="17.37324" y="2" width="119.24603" height="87.49111" rx="6.62207" ry="6.62207"/><rect class="cls-1" x="2" y="89.49111" width="149.9925" height="10.43786" rx="5.21893" ry="5.21893"/><path class="cls-1" d="M94.69817,45.27539a1.65147,1.65147,0,0,1-1.04392,1.508l-9.1635,3.55143,9.2457,9.54975a1.65415,1.65415,0,0,1-.03466,2.33051l-3.54887,3.4454a1.65532,1.65532,0,0,1-2.33147-.03482L79.03821,56.559,74.45415,66.944a1.639,1.639,0,0,1-.90324.874,1.67027,1.67027,0,0,1-.62228.10355,1.651,1.651,0,0,1-1.50788-1.04375L57.44163,30.79989a1.65138,1.65138,0,0,1,.4109-1.7874,1.67036,1.67036,0,0,1,.52954-.34285,1.53946,1.53946,0,0,1,1.25626.03706L93.72079,43.75A1.58876,1.58876,0,0,1,94.69817,45.27539Z"/></g></g></svg>