<svg xmlns="http://www.w3.org/2000/svg" viewBox="0 0 184.53223 127.77371"><defs><style>.cls-1{fill:#fff;stroke:#207dcc;stroke-linecap:round;stroke-linejoin:round;stroke-width:4px;}</style></defs><title>DCG HORIZON</title><g id="Layer_2" data-name="Layer 2"><g id="Layer_1-2" data-name="Layer 1"><circle class="cls-1" cx="99.85693" cy="65.0994" r="54.06125"/><path class="cls-1" d="M170.27441,91.0994c-11.73535,0-11.73535,6-23.4707,6-11.73633,0-11.73633-6-23.47314-6s-11.73682,6-23.47364,6-11.73681-6-23.47363-6-11.73682,6-23.47412,6c-11.73926,0-11.73926-6-23.478-6-5.97656,0-9.10888,2.1084-12.26562,3.89013v30.78418h165.3667V94.98807C179.37744,93.20658,176.24609,91.0994,170.27441,91.0994Z"/><path class="cls-1" d="M75.02941,21.17325A14.497,14.497,0,0,0,68.1,22.92465,24.1526,24.1526,0,0,0,22.23407,16.0321a17.26147,17.26147,0,1,0-2.97352,34.26505c.25375,0,.50592-.00662.757-.01747v.01748H75.02941a14.562,14.562,0,1,0,0-29.12391Z"/></g></g></svg>