<svg xmlns="http://www.w3.org/2000/svg" viewBox="0 0 294.73901 72.48325"><defs><style>.cls-1{fill:#2f2822;}.cls-2{fill:#fff;}.cls-3{fill:#2769b2;}</style></defs><title>DCG LOGO SMALL</title><g id="Layer_2" data-name="Layer 2"><g id="Layer_1-2" data-name="Layer 1"><rect class="cls-1" x="3.14819" y="3.14819" width="288.44238" height="44.43457"/><path class="cls-2" d="M288.44263,6.29639V44.43457H6.29639V6.29639H288.44263M294.739,0H0V50.731H294.739V0Z"/><path class="cls-2" d="M54.22121,33.17106h-7.957V29.07585H47.605v-8.916H46.26418V16.0651h8.19043a24.77039,24.77039,0,0,1,4.57519.34424,8.93355,8.93355,0,0,1,3.35645,1.41406,7.44449,7.44449,0,0,1,2.46,2.92676,8.553,8.553,0,0,1,.67676,1.89405,9.37418,9.37418,0,0,1,.2334,2.11523,8.71055,8.71055,0,0,1-.94727,4.05811,7.29168,7.29168,0,0,1-2.373,2.7915,7.6805,7.6805,0,0,1-3.07421,1.26709A32.28028,32.28028,0,0,1,54.22121,33.17106Zm0-13.01123v8.916h.627q2.33643,0,3.03711-1.24219a6.38113,6.38113,0,0,0,.68946-3.12354,8.63565,8.63565,0,0,0-.2959-2.23828,3.155,3.155,0,0,0-1.082-1.709,4.55567,4.55567,0,0,0-2.7295-.603Z"/><path class="cls-2" d="M77.41359,33.17106H68.11672V29.07585h1.38965v-8.916H68.11672V16.0651h9.29687q1.25538,0,2.3252.043,1.06933.04322,1.832.123a13.76528,13.76528,0,0,1,1.40137.21484,5.18562,5.18562,0,0,1,2.915,1.66016,4.54173,4.54173,0,0,1,1.13086,3.07471,4.39659,4.39659,0,0,1-.68848,2.41015A4.13581,4.13581,0,0,1,84.522,25.1652l2.36133,3.91065h1.22949v4.09521H81.95168l-3.72559-6.98535H76.12258v2.89014h1.291Zm-1.291-13.35547v3.25879h.73828a14.43591,14.43591,0,0,0,1.96777-.08594,1.58394,1.58394,0,0,0,.93457-.4917,1.41365,1.41365,0,0,0,.38086-1.04541,1.45649,1.45649,0,0,0-.38086-1.05761,1.60936,1.60936,0,0,0-.97168-.4917,16.209,16.209,0,0,0-2.0664-.08643Z"/><path class="cls-2" d="M90.06887,20.15983H88.75344V16.0651H97.5093v4.09473h-.8125V25.9279a6.81786,6.81786,0,0,0,.39355,2.81592,1.46114,1.46114,0,0,0,1.415.73779,1.32949,1.32949,0,0,0,1.22949-.627,5.46179,5.46179,0,0,0,.38086-2.521V20.15983h-.86035V16.0651H105.687v4.09473h-1.35254v6.19824a9.42855,9.42855,0,0,1-.68945,3.88623,4.99169,4.99169,0,0,1-2.28711,2.34864,8.31124,8.31124,0,0,1-3.93555.84863,11.14248,11.14248,0,0,1-3.332-.45508A5.18485,5.18485,0,0,1,91.75344,31.634a5.48912,5.48912,0,0,1-1.2666-2.17676,12.84964,12.84964,0,0,1-.418-3.8125Z"/><path class="cls-2" d="M117.48,33.17106H107.482V29.07585h1.66016v-8.916H107.482V16.0651h10.49024a14.65972,14.65972,0,0,1,5.28808.70069,5.25168,5.25168,0,0,1,2.459,1.94336,4.89059,4.89059,0,0,1,.78711,2.69287,4.71888,4.71888,0,0,1-.93457,3.001,5.25829,5.25829,0,0,1-2.47168,1.7461,15.21336,15.21336,0,0,1-4.67285.52881h-2.66895v2.39795H117.48Zm-1.72168-13.35547v3.21h1.292a4.49844,4.49844,0,0,0,1.9668-.31982,1.2827,1.2827,0,0,0,.59082-1.24219,1.62709,1.62709,0,0,0-.32031-1.02051,1.35485,1.35485,0,0,0-.82325-.5166,8.66684,8.66684,0,0,0-1.67285-.11084Z"/><path class="cls-2" d="M132.53176,33.17106h-6.77539V29.07585h1.30273l3.21-8.916h-1.37695V16.0651H141.189v4.09473H139.812l3.27051,8.916h1.25391v4.09521h-8.92676v-3.751h1.5l-.65137-2.15185h-4.37793l-.75,2.15185h1.40137Zm1.61133-12.76514-1.61133,4.73487h3.0625Z"/><path class="cls-2" d="M161.78762,33.17106H145.50539V29.07585h1.53711v-8.916h-1.53711V16.0651h9.77734v4.09473h-1.624v8.916h4.0459V26.33366h4.083Z"/><path class="cls-2" d="M176.8882,25.63249l4.43946,1.562a7.83291,7.83291,0,0,1-2.59473,4.48877,8.4189,8.4189,0,0,1-5.65625,1.7583q-4.92041,0-7.28027-2.57031a8.84367,8.84367,0,0,1-2.374-6.24707,9.12173,9.12173,0,0,1,2.32422-6.3086,8.53431,8.53431,0,0,1,10.94531-1.10693V16.0651h4.10743v6.24707h-4.26758a3.69338,3.69338,0,0,0-1.11914-1.84472,2.70444,2.70444,0,0,0-1.79492-.66406q-2.78028,0-2.7793,4.78369,0,4.79662,2.87695,4.79638Q176.23636,29.38346,176.8882,25.63249Z"/><path class="cls-2" d="M188.94,33.17106h-6.77539V29.07585h1.30273l3.21-8.916h-1.377V16.0651h12.29785v4.09473h-1.37793l3.27149,8.916h1.2539v4.09521h-8.92773v-3.751h1.5l-.65137-2.15185h-4.37793l-.75,2.15185H188.94Zm1.61133-12.76514L188.94,25.14079h3.0625Z"/><path class="cls-2" d="M208.73977,33.17106h-6.62793V29.07585h1.31543v-8.916h-1.35254V16.0651h10.31738l2.52148,6.60352,2.582-6.60352h10.25684v4.09473h-1.34082v8.916h1.37695v4.09521h-8.92773V29.07585h1.36523V19.52067l-5.165,13.65039h-2.55761l-5.11621-13.52734v9.43213h1.35254Z"/><path class="cls-2" d="M239.92531,33.17106h-9.99707V29.07585h1.66016v-8.916h-1.66016V16.0651H240.4175a14.65979,14.65979,0,0,1,5.28809.70069,5.25165,5.25165,0,0,1,2.459,1.94336,4.89059,4.89059,0,0,1,.78711,2.69287,4.71882,4.71882,0,0,1-.93457,3.001,5.25829,5.25829,0,0,1-2.47168,1.7461,15.21331,15.21331,0,0,1-4.67285.52881h-2.66895v2.39795h1.72168Zm-1.72168-13.35547v3.21h1.292a4.49841,4.49841,0,0,0,1.9668-.31982,1.28268,1.28268,0,0,0,.59082-1.24219,1.627,1.627,0,0,0-.32031-1.02051,1.35482,1.35482,0,0,0-.82324-.5166,8.66692,8.66692,0,0,0-1.67285-.11084Z"/><path class="cls-2" d="M134.78068,47.73217,128.0532,62.6223c-2.719,6.0591-6.33457,9.86095-14.5138,9.86095-4.73832,0-6.44832-2.73256-5.9644-5.46512a6.96182,6.96182,0,0,1,7.04537-5.42577c1.9947,0,4.86683.11929,4.418,2.65385a5.9562,5.9562,0,0,1-.58046,1.584,4.10689,4.10689,0,0,0-2.81-1.02994A3.933,3.933,0,0,0,111.624,67.8101c-.24534,1.386.57,2.69321,2.66492,2.69321,2.24434,0,3.98016-.792,5.85-4.87114l3.2503-7.08843a20.542,20.542,0,0,1-6.33641,1.42593c-8.12943,0-9.89538-4.67315-8.92755-10.13827,1.33984-7.56374,9.23376-15.24676,20.35584-15.24676,4.63809,0,9.0167,1.46528,8.336,5.3071-.37139,2.09861-1.59256,3.64321-4.13634,3.64321a4.82484,4.82484,0,0,1-3.25891-1.02933c1.29619-.27731,2.59483-2.25786,2.77007-3.24783.11191-.63334.24842-2.81189-2.94346-2.81189-5.486,0-12.38321,7.40571-13.49862,13.70217-.62472,3.52453.48822,6.53441,4.62764,6.53441a6.24117,6.24117,0,0,0,4.49913-1.46528l3.47042-7.485Z"/><path class="cls-2" d="M156.7838,49.91072a1.99614,1.99614,0,0,0,1.38349.356c2.34395,0,3.62968-1.34661,5.58072-1.94059l.05165.83195a18.01936,18.01936,0,0,1-7.6492,3.48518c-2.35748,7.95911-8.4879,11.87963-13.47525,11.87963-5.3366,0-7.31531-1.78194-6.48029-6.49383,1.72537-9.74228,8.70311-13.93951,15.58554-13.93951C156.51816,44.08957,157.19638,47.01952,156.7838,49.91072Zm-4.394,3.12855c-1.44621,0-1.948-.83195-1.77948-1.78256a3.81154,3.81154,0,0,1,2.68583-2.77192c.08178-1.30663-.33327-2.05926-1.7303-2.05926-4.6879,0-8.11343,8.079-8.67482,11.24692-.42059,2.37593.8633,3.00926,2.80819,3.00926C148.74169,60.68171,151.11085,56.88047,152.38981,53.03927Z"/><path class="cls-2" d="M178.74879,57.94976a5.1151,5.1151,0,0,0-.4876,1.34661c-.14758.83133.13958,1.46466,1.53537,1.46466a5.23372,5.23372,0,0,0,1.31832-.11867c-1.99961,3.40586-4.137,3.64321-5.83282,3.64321-2.89243,0-4.228-1.188-4.40444-3.00988a11.16527,11.16527,0,0,1-7.35712,3.24722c-4.78813,0-5.70738-2.69259-5.29418-5.02855,1.207-6.81173,5.74428-14.96944,15.719-14.96944a5.4537,5.4537,0,0,1,3.16544.98935l.48207-1.02871h7.13147Zm-2.48045-10.4949a3.79265,3.79265,0,0,0-2.3169-.71266c-3.741,0-7.84842,6.29707-8.80272,11.68287-.42058,2.37531,1.148,2.81127,2.395,2.81127,1.14738,0,2.40544-.91127,3.59894-2.01929a4.58235,4.58235,0,0,1,.47469-1.26729Z"/><path class="cls-3" d="M137.29925,45.84324l-6.72748,14.89012c-2.719,6.05911-6.33456,9.861-14.51379,9.861-4.73832,0-6.44832-2.73256-5.96441-5.46513a6.96183,6.96183,0,0,1,7.04538-5.42577c1.99469,0,4.86683.11929,4.418,2.65386a5.95573,5.95573,0,0,1-.58045,1.58395,4.107,4.107,0,0,0-2.81-1.02994,3.933,3.933,0,0,0-4.02382,3.00988c-.24534,1.386.57,2.69321,2.66492,2.69321,2.24433,0,3.98016-.792,5.85-4.87114l3.2503-7.08843a20.54218,20.54218,0,0,1-6.33642,1.42592c-8.12942,0-9.89537-4.67314-8.92754-10.13827,1.33984-7.56373,9.23376-15.24676,20.35584-15.24676,4.63809,0,9.0167,1.46528,8.336,5.3071-.37139,2.09861-1.59256,3.64321-4.13635,3.64321a4.82482,4.82482,0,0,1-3.2589-1.02932c1.29618-.27732,2.59483-2.25787,2.77007-3.24784.11191-.63333.24841-2.81188-2.94347-2.81188-5.486,0-12.38321,7.40571-13.49861,13.70216-.62473,3.52454.48822,6.53441,4.62764,6.53441a6.24117,6.24117,0,0,0,4.49913-1.46527l3.47042-7.485Z"/><path class="cls-3" d="M159.30237,48.02178a1.99619,1.99619,0,0,0,1.3835.356c2.344,0,3.62968-1.3466,5.58071-1.94058l.05165.83194a18.01914,18.01914,0,0,1-7.64919,3.48518c-2.35748,7.95911-8.4879,11.87964-13.47525,11.87964-5.33661,0-7.31531-1.782-6.4803-6.49383,1.72538-9.74229,8.70312-13.93951,15.58555-13.93951C159.03674,42.20064,159.715,45.13058,159.30237,48.02178Zm-4.394,3.12855c-1.44621,0-1.948-.83194-1.77948-1.78256a3.81151,3.81151,0,0,1,2.68582-2.77191c.08178-1.30664-.33327-2.05926-1.73029-2.05926-4.6879,0-8.11343,8.079-8.67483,11.24691-.42058,2.37593.86331,3.00926,2.80819,3.00926C151.26026,58.79277,153.62942,54.99154,154.90839,51.15033Z"/><path class="cls-3" d="M181.26737,56.06083a5.11521,5.11521,0,0,0-.48761,1.3466c-.14757.83133.13958,1.46466,1.53538,1.46466a5.2338,5.2338,0,0,0,1.31832-.11867c-1.99962,3.40587-4.137,3.64321-5.83282,3.64321-2.89243,0-4.228-1.188-4.40444-3.00987a11.16536,11.16536,0,0,1-7.35712,3.24722c-4.78813,0-5.70739-2.6926-5.29418-5.02855,1.207-6.81173,5.74427-14.96945,15.719-14.96945a5.45377,5.45377,0,0,1,3.16544.98935l.48207-1.0287h7.13146Zm-2.48045-10.49491a3.79272,3.79272,0,0,0-2.3169-.71265c-3.741,0-7.84842,6.29706-8.80272,11.68287-.42059,2.37531,1.148,2.81126,2.395,2.81126,1.14738,0,2.40544-.91126,3.59894-2.01929a4.582,4.582,0,0,1,.47469-1.26728Z"/><polygon class="cls-2" points="24.589 14.388 26.827 21.277 34.072 21.277 28.211 25.536 30.45 32.425 24.589 28.167 18.728 32.425 20.967 25.536 15.106 21.277 22.35 21.277 24.589 14.388"/><polygon class="cls-2" points="270.15 14.388 272.389 21.277 279.633 21.277 273.772 25.536 276.011 32.425 270.15 28.167 264.289 32.425 266.528 25.536 260.667 21.277 267.911 21.277 270.15 14.388"/></g></g></svg>