<svg xmlns="http://www.w3.org/2000/svg" viewBox="0 0 133.97052 127.6779"><defs><style>.cls-1{fill:#fff;stroke-width:4px;}.cls-1,.cls-2{stroke:#207dcc;stroke-linecap:round;stroke-linejoin:round;}.cls-2{fill:#207dcc;}</style></defs><title>DCG ICON PROJECT</title><g id="Layer_2" data-name="Layer 2"><g id="Layer_1-2" data-name="Layer 1"><rect class="cls-1" x="2" y="2" width="88.6196" height="123.6779" rx="8.91908" ry="8.91908"/><rect class="cls-2" x="11.2515" y="39.65209" width="32.72782" height="4.86921"/><rect class="cls-2" x="11.2515" y="27.96599" width="32.72782" height="4.86921"/><rect class="cls-2" x="11.2515" y="16.27989" width="66.82989" height="4.86921"/><rect class="cls-2" x="11.2515" y="51.33819" width="32.50054" height="4.86921"/><rect class="cls-2" x="11.2515" y="63.02429" width="32.50054" height="4.86921"/><rect class="cls-2" x="11.2515" y="74.71039" width="32.50054" height="4.86921"/><rect class="cls-2" x="11.2515" y="86.39649" width="32.50054" height="4.86921"/><rect class="cls-2" x="11.2515" y="98.08258" width="32.50054" height="4.86921"/><rect class="cls-2" x="11.2515" y="109.76869" width="34.81484" height="4.86921"/><rect class="cls-1" x="54.34399" y="24.39836" width="22.88528" height="22.88528" rx="6.24336" ry="6.24336"/><polygon class="cls-2" points="71.619 30.076 62.841 37.505 59.541 33.601 56.197 36.431 59.497 40.335 62.328 43.684 62.331 43.687 65.675 40.857 65.672 40.854 74.45 33.425 71.619 30.076"/><rect class="cls-1" x="54.34399" y="56.53514" width="22.88528" height="22.88528" rx="6.24336" ry="6.24336"/><polygon class="cls-2" points="71.619 62.212 62.841 69.641 59.541 65.737 56.197 68.567 59.497 72.472 62.328 75.821 62.331 75.824 65.675 72.994 65.672 72.991 74.45 65.562 71.619 62.212"/><rect class="cls-1" x="54.34399" y="88.67191" width="22.88528" height="22.88528" rx="6.24336" ry="6.24336"/><polygon class="cls-2" points="72.958 96.002 69.764 92.997 65.924 97.084 62.083 92.997 58.889 96.002 62.914 100.287 58.889 104.57 62.083 107.575 62.086 107.578 65.924 103.492 69.761 107.578 69.764 107.575 72.958 104.57 68.934 100.287 72.958 96.002"/><path class="cls-1" d="M126.97377,28.482l2.16314,1.94842,2.16314,1.94842a2.25119,2.25119,0,0,1,.6549,1.95057A4.08828,4.08828,0,0,1,130.8716,36.625l-19.896,21.78257-19.896,21.78258c-.51545.56433-9.54615,5.17365-13.00373,6.92727-.55843.28322-1.01554-.12851-.786-.708,1.42123-3.58783,5.16249-12.96154,5.67795-13.52587l19.896-21.78257,19.896-21.78258a4.13564,4.13564,0,0,1,2.19534-1.294A2.28839,2.28839,0,0,1,126.97377,28.482Z"/><path class="cls-1" d="M82.942,72.92356c-.586.76712-4.24817,9.94172-5.65209,13.48587-.22953.57949.22755.9912.786.708,3.4155-1.73226,12.25433-6.24409,12.96616-6.89783Z"/><path class="cls-1" d="M82.01586,85.10632c3.864-1.98517,8.51757-4.41961,9.02621-4.88673l-8.10007-7.296c-.41869.54815-2.40594,5.38426-4.01973,9.39626Z"/><path class="cls-2" d="M127.60368,31.038l.15889.14311a1.06194,1.06194,0,0,1,.04281,1.50355L110.26167,51.89191a1.07954,1.07954,0,0,1-1.51054.10389l-.15888-.14311a1.062,1.062,0,0,1-.04281-1.50356l17.54371-19.20726A1.07952,1.07952,0,0,1,127.60368,31.038Z"/></g></g></svg>