<svg xmlns="http://www.w3.org/2000/svg" xmlns:xlink="http://www.w3.org/1999/xlink" viewBox="0 0 345.4563 120.552"><defs><style>.cls-1{fill:url(#linear-gradient);}.cls-2,.cls-3{fill:none;stroke:#fff;stroke-miterlimit:10;stroke-width:1.774px;}.cls-3{stroke-dasharray:11.42651 5.71326;}.cls-4{font-size:30px;fill:#fff;font-family:Raleway-ExtraBold, Raleway;font-weight:700;}.cls-5{letter-spacing:-0.002em;}.cls-6{letter-spacing:-0.02699em;}.cls-7{letter-spacing:-0.034em;}</style><linearGradient id="linear-gradient" x1="172.72815" y1="7.96934" x2="172.72815" y2="118.96379" gradientUnits="userSpaceOnUse"><stop offset="0" stop-color="#05afcc"/><stop offset="0.99459" stop-color="#207dcc"/></linearGradient></defs><title>REGISTER NOW</title><g id="Layer_2" data-name="Layer 2"><g id="Layer_1-2" data-name="Layer 1"><path class="cls-1" d="M320.9563,59.552a24.5,24.5,0,0,1,24.5-24.5V.00021H0V35.052a24.5,24.5,0,0,1,24.5,24.5A24.5,24.5,0,0,1,0,84.052v36.5H345.4563v-36.5A24.5,24.5,0,0,1,320.9563,59.552Z"/><line class="cls-2" x1="50.06658" x2="50.06658" y2="6"/><line class="cls-3" x1="50.06658" y1="11.71338" x2="50.06658" y2="111.69531"/><line class="cls-2" x1="50.06658" y1="114.552" x2="50.06658" y2="120.552"/><text class="cls-4" transform="translate(69.06597 70.45117)">REGI<tspan class="cls-5" x="68.57861" y="0">S</tspan><tspan x="86.99854" y="0">TER N</tspan><tspan class="cls-6" x="173.84717" y="0">O</tspan><tspan class="cls-7" x="195.05762" y="0">W</tspan></text></g></g></svg>