<svg xmlns="http://www.w3.org/2000/svg" viewBox="0 0 153.9925 101.92898"><defs><style>.cls-1{fill:#fff;stroke:#207dcc;stroke-linecap:round;stroke-linejoin:round;stroke-width:4px;}</style></defs><title>DCG ICON PROJECT_1</title><g id="Layer_2" data-name="Layer 2"><g id="Layer_1-2" data-name="Layer 1"><rect class="cls-1" x="17.37324" y="2" width="119.24603" height="87.49111" rx="6.62207" ry="6.62207"/><rect class="cls-1" x="2" y="89.49111" width="149.9925" height="10.43786" rx="5.21893" ry="5.21893"/><path class="cls-1" d="M77.82311,46.67722l-7.4236-7.92935a14.32351,14.32351,0,0,0,1.619-8.43883A15.40843,15.40843,0,0,0,55.8127,16.67a14.38,14.38,0,0,0-2.71174.46165l3.61565,3.7964,7.20545,7.68436-1.91491,7.0114L54.77462,37.3315,47.56917,29.647,43.716,25.60115a14.41275,14.41275,0,0,0-.86366,6.77188A15.40858,15.40858,0,0,0,59.05863,46.012a14.0506,14.0506,0,0,0,6.3398-2.01889l7.14184,7.62846Z"/><path class="cls-1" d="M85.67448,43.14236H89.75a3.50456,3.50456,0,0,1,3.50456,3.50456V78.36921a3.5046,3.5046,0,0,1-3.5046,3.5046h-4.0755a3.50458,3.50458,0,0,1-3.50458-3.50458V46.647a3.50461,3.50461,0,0,1,3.50461-3.50461Z" transform="matrix(0.73027, -0.68316, 0.68316, 0.73027, -19.04435, 76.78142)"/><path class="cls-1" d="M104.45991,34.80462l.03354-.03317A2.9254,2.9254,0,0,0,104.524,30.646l-7.08693-7.19315a2.92262,2.92262,0,0,0-3.21934-.62948L91.90131,20.472a2.91864,2.91864,0,0,0-.52649-3.332l-3.62211-3.67639a2.92586,2.92586,0,0,0-4.12549-.03081l-5.4349,5.35476a2.92587,2.92587,0,0,0-.03056,4.12549l3.62236,3.6764a2.92342,2.92342,0,0,0,3.10728.67594l2.37308,2.40874a2.92262,2.92262,0,0,0,.58165,3.22816l.96206.97659-13.5,13.44052,5.11934,5.11326L93.88579,39.03236l1.04752,1.06305a2.92589,2.92589,0,0,0,4.1255.03069l.88155-.86851c6.11469,3.04455,7.11152,11.69916,7.11152,11.69916s.38165,2.62552,2.2896.24549C111.55231,43.484,106.91076,37.37188,104.45991,34.80462Z"/><path class="cls-1" d="M62.9012,43.484h4.07554a3.50463,3.50463,0,0,1,3.50463,3.50463V78.71071a3.50458,3.50458,0,0,1-3.50458,3.50458h-4.0755a3.50461,3.50461,0,0,1-3.50461-3.50461V46.98852A3.50453,3.50453,0,0,1,62.9012,43.484Z" transform="translate(63.42709 -27.51001) rotate(44.97811)"/></g></g></svg>