<svg xmlns="http://www.w3.org/2000/svg" viewBox="0 0 92.00586 99.33968"><defs><style>.cls-1{fill:#fff;stroke:#207dcc;stroke-linecap:round;stroke-linejoin:round;stroke-width:4px;}</style></defs><title>DCG ICON SYMFONY</title><g id="Layer_2" data-name="Layer 2"><g id="Layer_1-2" data-name="Layer 1"><path class="cls-1" d="M90.00586,71.67131c0,8.07923-12.08877,11.00073-18.33455,11.00073s-18.33456-2.9215-18.33456-11.00073S65.42552,60.67057,71.67131,60.67057A26.79383,26.79383,0,0,1,82.672,62.90515V32.13753L38.66911,45.71713V86.339c0,8.07924-12.08877,11.00073-18.33456,11.00073S2,94.41819,2,86.339,14.08877,75.33822,20.33455,75.33822a26.794,26.794,0,0,1,11.00074,2.23457V22.168a5.591,5.591,0,0,1,3.89588-5.27139L82.901,2.229A4.93928,4.93928,0,0,1,84.50549,2a5.50159,5.50159,0,0,1,5.50037,5.50037Z"/></g></g></svg>