<svg xmlns="http://www.w3.org/2000/svg" xmlns:xlink="http://www.w3.org/1999/xlink" viewBox="0 0 1054.74024 9089.3552"><defs><style>.cls-1,.cls-11,.cls-29,.cls-35{fill:#fff;}.cls-2{fill:#ffef2c;}.cls-3{fill:#f3ca20;}.cls-4{fill:#f0ac20;}.cls-5{fill:#ffefa8;}.cls-6{fill:#e0d298;}.cls-7{fill:#5fa8dc;}.cls-8{fill:#4589c8;}.cls-9{fill:#3c7caa;}.cls-10{fill:#2f2822;}.cls-11{font-size:80.38371px;font-family:Rockwell-ExtraBold, Rockwell Extra Bold;}.cls-12{letter-spacing:-0.02002em;}.cls-13{letter-spacing:-0.06494em;}.cls-14{letter-spacing:-0.00001em;}.cls-15{letter-spacing:-0.00001em;}.cls-16{fill:#2769b2;}.cls-17{fill:#e2e318;}.cls-18{fill:#415da9;}.cls-19{fill:#50b348;}.cls-20{fill:#8d7b2f;}.cls-21{fill:#87c440;}.cls-22{fill:#876226;}.cls-23{fill:#e8cf8a;}.cls-24{fill:#bfa673;}.cls-25{fill:#cb9135;}.cls-26{fill:#54514e;}.cls-27{fill:#9b6e35;}.cls-28,.cls-30{fill:none;}.cls-28{stroke:#727373;stroke-width:2.00959px;}.cls-28,.cls-30,.cls-35{stroke-miterlimit:10;}.cls-29{font-size:72.34534px;font-family:RogueHero, Rogue Hero;}.cls-30{stroke:#fff;stroke-width:3.01439px;}.cls-31{fill:#c4c3c3;}.cls-32{fill:#d5d6d5;}.cls-33{fill:#1d615f;}.cls-34{fill:#727474;}.cls-35{stroke:#eda126;stroke-linecap:round;stroke-width:1.5px;}.cls-36{fill:url(#Red_Orange);}</style><linearGradient id="Red_Orange" x1="-11.28339" y1="9049.10773" x2="83.21661" y2="9085.60773" gradientUnits="userSpaceOnUse"><stop offset="0" stop-color="#f37e5f"/><stop offset="0.5" stop-color="#ec1c24"/><stop offset="1" stop-color="#cf232a"/></linearGradient></defs><title>DRUPAL CAMP GOA LOGO</title><g id="Layer_2" data-name="Layer 2"><g id="Layer_1-2" data-name="Layer 1"><polygon class="cls-1" points="208.723 492.471 209.844 168.983 585.502 10.917 960.058 171.581 958.938 495.069 583.279 653.134 208.723 492.471"/><path class="cls-1" d="M585.46461,21.83423,949.98682,178.19409l-1.074,310.19141L583.3169,642.21729,218.79469,485.85767l1.074-310.19165,365.596-153.83179M585.54029,0l-7.86963,3.31128L212.07472,157.14307l-12.25586,5.15673-.04615,13.29664-1.074,310.19165-.0459,13.29663,12.21973,5.2417L575.395,660.68579l7.84643,3.36572,7.86939-3.31128,365.596-153.83178,12.25585-5.15674.04615-13.29663,1.07373-310.19141.04614-13.29663-12.22-5.2417L593.38673,3.36548,585.54029,0Z"/><polygon class="cls-2" points="948.913 327.618 218.795 325.09 219.869 175.666 585.465 21.834 949.987 178.194 948.913 327.618"/><polygon class="cls-3" points="948.913 327.618 218.795 325.09 219.869 175.666 399.3 100.167 768.093 100.172 949.987 178.194 948.913 327.618"/><polygon class="cls-4" points="948.913 327.618 218.795 325.09 219.869 175.666 949.987 178.194 948.913 327.618"/><path class="cls-5" d="M949.81018,248.83418,219.92377,248.12s121.6657-38.3728,188.09381-27.42153c236.48371,38.98645,209.47986-17.40009,364.79944,1.7467,25.55231,3.14992,139.02368,6.33236,176.97663,11.55761Z"/><path class="cls-6" d="M949.81018,248.83418l-593.23449-.59869s168.965-34.28937,271.55106-25.9126C653.86422,224.42451,949.81018,248.83418,949.81018,248.83418Z"/><polygon class="cls-7" points="948.913 488.386 583.317 642.217 218.795 485.858 219.869 336.433 949.987 338.961 948.913 488.386"/><polygon class="cls-8" points="948.913 488.386 769.492 563.88 400.689 563.88 218.795 485.858 219.869 336.433 949.987 338.961 948.913 488.386"/><polygon class="cls-9" points="948.913 488.386 218.795 485.858 219.869 336.433 949.987 338.961 948.913 488.386"/><rect class="cls-10" x="124.08936" y="258.21484" width="920.60254" height="141.81885"/><path class="cls-1" d="M1034.64405,268.2627V389.9856H134.13746V268.2627h900.50659m20.09619-20.09595H114.04151V410.08154h940.69873V248.16675Z"/><text class="cls-11" transform="translate(257.91212 354.04498)">D<tspan class="cls-12" x="70.33594" y="0">R</tspan><tspan x="137.37451" y="0">U</tspan><tspan class="cls-13" x="195.97461" y="0">P</tspan><tspan class="cls-14" x="256.92969" y="0">AL</tspan><tspan class="cls-12" x="374.12988" y="0">C</tspan><tspan class="cls-15" x="436.96875" y="0">AMP</tspan></text><path class="cls-1" d="M544.21207,400.5107l-21.47163,47.52373c-8.67815,19.3384-20.2176,31.4725-46.32269,31.4725-15.123,0-20.58066-8.72132-19.03618-17.44264,1.5229-8.59572,9.91059-17.317,22.48625-17.317,6.36632,0,15.53313.38073,14.10051,8.47012a19.00949,19.00949,0,0,1-1.85259,5.05538c-3.50894-2.65525-5.78347-3.28717-8.9686-3.28717-7.32206,0-12.01438,4.92978-12.84255,9.6064-.783,4.42346,1.81923,8.59572,8.50544,8.59572,7.1631,0,12.70322-2.52769,18.67116-15.54687l10.37374-22.62362a65.563,65.563,0,0,1-20.22349,4.551c-25.94612,0-31.5824-14.91494-28.49344-32.35758,4.27628-24.14063,29.47076-48.662,64.96833-48.662,14.80309,0,28.778,4.67663,26.60552,16.93828-1.18535,6.698-5.08286,11.62777-13.20169,11.62777-2.54535,0-7.86763-.50632-10.40121-3.28521,4.13693-.88509,8.28172-7.20627,8.841-10.36589.35717-2.02137.79285-8.97448-9.39446-8.97448-17.50936,0-39.52264,23.63627-43.0826,43.73219-1.9939,11.249,1.55822,20.85542,14.76972,20.85542,5.8914,0,10.38944-1.13825,14.35956-4.67662l11.07631-23.88943Z"/><path class="cls-1" d="M614.43792,407.46381c.82229.75752,2.18622,1.13629,4.41561,1.13629,7.481,0,11.5846-4.29786,17.81159-6.19363l.16485,2.65525c-5.807,4.92978-14.82271,9.10008-24.41342,11.12341-7.52419,25.40251-27.09025,37.91536-43.008,37.91536-17.03248,0-23.34778-5.6873-20.68271-20.72588,5.50675-31.09374,27.77712-44.48972,49.74331-44.48972C613.59013,388.88489,615.75475,398.23617,614.43792,407.46381ZM600.414,417.449c-4.61579,0-6.21718-2.65526-5.67946-5.68927.64959-3.664,4.05059-7.58307,8.57217-8.84692.261-4.1703-1.06367-6.57239-5.52245-6.57239-14.962,0-25.8951,25.7852-27.68685,35.896-1.34235,7.58307,2.75534,9.60444,8.9627,9.60444C588.77048,441.8408,596.332,429.70867,600.414,417.449Z"/><path class="cls-1" d="M684.5421,433.12145a16.32467,16.32467,0,0,0-1.55626,4.29785c-.471,2.6533.44548,4.67466,4.90034,4.67466a16.70379,16.70379,0,0,0,4.20759-.37876c-6.382,10.87025-13.20365,11.62777-18.61621,11.62777-9.23157,0-13.4941-3.79153-14.05734-9.6064-5.69319,5.18294-13.77277,10.36392-23.48122,10.36392-15.28194,0-18.21586-8.59375-16.89707-16.04926,3.85237-21.7405,18.33361-47.77689,50.16917-47.77689A17.40626,17.40626,0,0,1,679.314,393.432l1.5386-3.28325h22.761Zm-7.9167-33.49583a12.10479,12.10479,0,0,0-7.39467-2.27453c-11.93981,0-25.04926,20.09789-28.09505,37.28736-1.34235,7.58111,3.664,8.97252,7.64391,8.97252,3.662,0,7.67727-2.90841,11.48647-6.44483a14.62494,14.62494,0,0,1,1.515-4.04469Z"/><path class="cls-16" d="M552.25044,394.48192l-21.47163,47.52373c-8.67814,19.33841-20.2176,31.4725-46.32268,31.4725-15.123,0-20.58067-8.72132-19.03619-17.44264,1.5229-8.59572,9.91059-17.317,22.48625-17.317,6.36633,0,15.53313.38072,14.10051,8.47011a19.00931,19.00931,0,0,1-1.85259,5.05539c-3.50894-2.65526-5.78347-3.28718-8.9686-3.28718-7.32206,0-12.01438,4.92978-12.84255,9.6064-.783,4.42346,1.81923,8.59572,8.50544,8.59572,7.1631,0,12.70322-2.52769,18.67116-15.54687l10.37374-22.62362a65.56321,65.56321,0,0,1-20.22349,4.551c-25.94612,0-31.5824-14.915-28.49344-32.35759,4.27628-24.14062,29.47076-48.662,64.96833-48.662,14.80309,0,28.778,4.67662,26.60552,16.93827-1.18534,6.698-5.08286,11.62777-13.20169,11.62777-2.54535,0-7.86763-.50632-10.40121-3.28521,4.13693-.88508,8.28172-7.20627,8.841-10.36589.35717-2.02136.79285-8.97448-9.39445-8.97448-17.50937,0-39.52265,23.63627-43.08261,43.7322-1.9939,11.249,1.55822,20.85541,14.76972,20.85541,5.8914,0,10.38944-1.13825,14.35956-4.67662l11.07631-23.88943Z"/><path class="cls-16" d="M622.47629,401.435c.82229.75753,2.18622,1.13629,4.41561,1.13629,7.481,0,11.5846-4.29786,17.81159-6.19363l.16485,2.65525c-5.807,4.92978-14.82271,9.10008-24.41341,11.12341-7.5242,25.40251-27.09026,37.91537-43.008,37.91537-17.03247,0-23.34778-5.68731-20.68271-20.72589,5.50675-31.09374,27.77712-44.48972,49.74331-44.48972C621.6285,382.85611,623.79313,392.20739,622.47629,401.435Zm-14.024,9.98517c-4.61578,0-6.21718-2.65526-5.67946-5.68927.64959-3.664,4.05059-7.58307,8.57217-8.84692.261-4.1703-1.06367-6.57239-5.52245-6.57239-14.962,0-25.8951,25.7852-27.68685,35.896-1.34235,7.58308,2.75534,9.60444,8.9627,9.60444C596.80885,435.812,604.37033,423.67989,608.45232,411.4202Z"/><path class="cls-16" d="M692.58047,427.09267a16.3246,16.3246,0,0,0-1.55626,4.29786c-.471,2.65329.44549,4.67465,4.90035,4.67465a16.70376,16.70376,0,0,0,4.20758-.37876c-6.382,10.87025-13.20365,11.62777-18.61621,11.62777-9.23157,0-13.4941-3.79153-14.05734-9.6064-5.69319,5.183-13.77277,10.36393-23.48122,10.36393-15.28194,0-18.21586-8.59376-16.89707-16.04927,3.85238-21.7405,18.33361-47.77689,50.16917-47.77689a17.40631,17.40631,0,0,1,10.10292,3.15765L688.891,384.12h22.761Zm-7.9167-33.49583a12.10479,12.10479,0,0,0-7.39467-2.27453c-11.93981,0-25.04926,20.09789-28.09505,37.28736-1.34235,7.58111,3.664,8.97252,7.64391,8.97252,3.662,0,7.67727-2.90841,11.48647-6.44483a14.62494,14.62494,0,0,1,1.515-4.04469Z"/><path class="cls-4" d="M621.56188,82.122c0-3.30559,10.83316-10.95372,10.83316-10.95372s-13.11405-2.29508-14.504-5.17575c-1.41277-2.928,4.9862-14.56925,4.9862-14.56925s-12.78664,3.6504-15.314,1.63245c-2.51495-2.00807-1.80573-15.29478-1.80573-15.29478s-9.89474,8.83969-13.08751,8.114c-3.09224-.70288-8.27931-12.98162-8.27931-12.98162s-5.188,12.27881-8.2807,12.98193c-3.19294.7259-13.08847-8.11313-13.08847-8.11313s.70955,13.28689-1.80547,15.29531C558.68892,55.07553,545.902,51.426,545.902,51.426s6.4,11.64039,4.98756,14.56825c-1.38967,2.88055-14.50352,5.17582-14.50352,5.17582S547.21962,78.817,547.21962,82.122c0,3.30559-10.83315,10.95372-10.83315,10.95372s13.114,2.29508,14.504,5.17575c1.41277,2.928-4.9862,14.56925-4.9862,14.56925s12.78664-3.6504,15.314-1.63245c2.51495,2.00807,1.80572,15.29477,1.80572,15.29477s9.89475-8.83968,13.08752-8.114c3.09224.70288,8.2793,12.98162,8.2793,12.98162s5.188-12.27882,8.28071-12.98194c3.19294-.7259,13.08847,8.11314,13.08847,8.11314s-.70955-13.2869,1.80547-15.29532c2.52719-2.01813,15.3141,1.63135,15.3141,1.63135s-6.4-11.64039-4.98756-14.56825c1.38967-2.88055,14.50352-5.17583,14.50352-5.17583S621.56188,85.427,621.56188,82.122Z"/><path class="cls-1" d="M616.15568,82.122A31.77862,31.77862,0,0,0,592.6879,51.45163c-2.64495-.71379-4.43842-9.09632-8.29715-11.09456-.64127,4.33157-.4746,8.9149-8.30393,11.09639A31.76849,31.76849,0,1,0,616.15568,82.122Z"/><path class="cls-17" d="M302.00273,242.48623a7.969,7.969,0,0,0,.86412.56262,3.86839,3.86839,0,0,1-.48229-.02012C302.24388,242.84794,302.12331,242.667,302.00273,242.48623Z"/><path class="cls-18" d="M302.38456,243.02873c-.14068-.18079-.26125-.36171-.38183-.5425a7.969,7.969,0,0,0,.86412.56262A3.86839,3.86839,0,0,1,302.38456,243.02873Z"/><path class="cls-19" d="M482.49107,107.4236s-10.63033-51.13123-26.96545-29.99027c0,0,7.69786-19.63289,20.97508-14.69515S482.49107,107.4236,482.49107,107.4236Z"/><path class="cls-20" d="M460.46587,248.12312h14.90447s-12.52209-59.338,9.54557-141.17389h-5.52638S458.28881,167.73941,460.46587,248.12312Z"/><path class="cls-21" d="M481.90152,106.94923s57.2734-16.32795,51.747,43.45744C533.64854,150.40667,521.08858,117.24839,481.90152,106.94923Z"/><path class="cls-19" d="M481.90152,106.94923s48.56516-2.03762,51.747,43.45744C533.64854,150.40667,521.08858,117.24839,481.90152,106.94923Z"/><path class="cls-21" d="M482.49107,106.9787s-59.47528-3.08773-40.70118,53.94179C441.78989,160.92049,446.60556,125.79168,482.49107,106.9787Z"/><path class="cls-19" d="M482.49107,106.9787s-47.78809,8.88959-40.70118,53.94179C441.78989,160.92049,446.60556,125.79168,482.49107,106.9787Z"/><path class="cls-21" d="M482.49107,106.9787s35.75059-60.06606,57.18624,2.48252C539.67731,109.46122,520.83738,76.87084,482.49107,106.9787Z"/><path class="cls-19" d="M482.49107,106.9787s34.32713-43.98932,57.18624,2.48252C539.67731,109.46122,520.83738,76.87084,482.49107,106.9787Z"/><path class="cls-21" d="M481.90152,107.06731S436.39969,54.00489,425.98359,119.299C425.98359,119.299,438.96873,83.96539,481.90152,107.06731Z"/><path class="cls-19" d="M481.90152,107.06731S440.55323,69.60092,425.98359,119.299C425.98359,119.299,438.96873,83.96539,481.90152,107.06731Z"/><path class="cls-21" d="M482.49107,107.4236s.43883-64.90694-26.96545-29.99027c0,0,7.69786-19.63289,20.97508-14.69515S482.49107,107.4236,482.49107,107.4236Z"/><path class="cls-19" d="M411.51,129.04531s-8.99674-43.27375-22.82159-25.38158c0,0,6.51491-16.61584,17.75181-12.4369S411.51,129.04531,411.51,129.04531Z"/><path class="cls-20" d="M392.8695,248.12312h12.61406s-10.59779-50.21938,8.07867-119.47929h-4.67712S391.027,180.09221,392.8695,248.12312Z"/><path class="cls-21" d="M411.01107,128.64383s48.472-13.81878,43.7949,36.77921C454.806,165.423,444.17614,137.36029,411.01107,128.64383Z"/><path class="cls-19" d="M411.01107,128.64383s41.102-1.72449,43.7949,36.77921C454.806,165.423,444.17614,137.36029,411.01107,128.64383Z"/><path class="cls-21" d="M411.51,128.66878s-50.33554-2.61323-34.44651,45.6524C377.06351,174.32118,381.13914,144.59071,411.51,128.66878Z"/><path class="cls-19" d="M411.51,128.66878s-40.44435,7.5235-34.44651,45.6524C377.06351,174.32118,381.13914,144.59071,411.51,128.66878Z"/><path class="cls-21" d="M411.51,128.66878s30.25669-50.83553,48.39827,2.101C459.90829,130.7698,443.96354,103.18768,411.51,128.66878Z"/><path class="cls-19" d="M411.51,128.66878s29.052-37.22935,48.39827,2.101C459.90829,130.7698,443.96354,103.18768,411.51,128.66878Z"/><path class="cls-21" d="M411.01107,128.74377s-38.50943-44.90816-47.32486,10.352C363.68621,139.09575,374.67589,109.192,411.01107,128.74377Z"/><path class="cls-19" d="M411.01107,128.74377s-34.99418-31.70882-47.32486,10.352C363.68621,139.09575,374.67589,109.192,411.01107,128.74377Z"/><path class="cls-21" d="M411.51,129.04531s.3714-54.9325-22.82159-25.38158c0,0,6.51491-16.61584,17.75181-12.4369S411.51,129.04531,411.51,129.04531Z"/><path class="cls-19" d="M722.61385,116.56809s9.93943-47.808,25.21289-28.0411c0,0-7.19756-18.35689-19.61185-13.74007S722.61385,116.56809,722.61385,116.56809Z"/><path class="cls-20" d="M743.20757,248.12312H729.27178s11.70824-55.48147-8.92517-131.99857h5.1672S745.24313,172.96379,743.20757,248.12312Z"/><path class="cls-21" d="M723.16508,116.12455s-53.551-15.26674-48.38382,40.633C674.78126,156.75756,686.52491,125.75434,723.16508,116.12455Z"/><path class="cls-19" d="M723.16508,116.12455s-45.40876-1.90518-48.38382,40.633C674.78126,156.75756,686.52491,125.75434,723.16508,116.12455Z"/><path class="cls-21" d="M722.61385,116.15211s55.6098-2.887,38.05589,50.436C760.66974,166.58806,756.16705,133.74238,722.61385,116.15211Z"/><path class="cls-19" d="M722.61385,116.15211s44.68219,8.31183,38.05589,50.436C760.66974,166.58806,756.16705,133.74238,722.61385,116.15211Z"/><path class="cls-21" d="M722.61385,116.15211s-33.42705-56.16218-53.46954,2.32117C669.14431,118.47328,686.75978,88.00105,722.61385,116.15211Z"/><path class="cls-19" d="M722.61385,116.15211s-32.0961-41.13032-53.46954,2.32117C669.14431,118.47328,686.75978,88.00105,722.61385,116.15211Z"/><path class="cls-21" d="M723.16508,116.235s42.54452-49.61373,52.28366,11.43669C775.44874,127.67165,763.30754,94.63451,723.16508,116.235Z"/><path class="cls-19" d="M723.16508,116.235s38.66094-35.03133,52.28366,11.43669C775.44874,127.67165,763.30754,94.63451,723.16508,116.235Z"/><path class="cls-21" d="M722.61385,116.56809s-.41031-60.68844,25.21289-28.0411c0,0-7.19756-18.35689-19.61185-13.74007S722.61385,116.56809,722.61385,116.56809Z"/><rect class="cls-22" x="820.63617" y="187.93372" width="71.22228" height="60.18942"/><polygon class="cls-23" points="908.438 187.934 818.508 187.934 728.579 187.934 818.508 133.66 908.438 187.934"/><polygon class="cls-24" points="908.438 187.934 818.508 187.934 818.508 133.66 908.438 187.934"/><rect class="cls-25" x="745.15818" y="187.93372" width="75.47529" height="60.18942"/><rect class="cls-26" x="845.63782" y="197.6321" width="22.5577" height="22.5577"/><rect class="cls-26" x="801.42678" y="197.6321" width="15.19755" height="15.19755"/><rect class="cls-26" x="749.17736" y="197.6321" width="15.19755" height="15.19755"/><polygon class="cls-27" points="812.605 212.83 801.427 212.83 801.427 197.632 812.605 199.642 812.605 212.83"/><polygon class="cls-27" points="760.356 212.83 749.177 212.83 749.177 197.632 760.356 199.642 760.356 212.83"/><polygon class="cls-27" points="864.352 220.19 845.638 220.19 845.638 197.632 864.352 201.902 864.352 220.19"/><polyline class="cls-28" points="673.105 248.834 668.124 193.111 633.375 153.421"/><rect class="cls-1" x="568.98388" y="221.74721" width="97.13032" height="8.03837"/><polygon class="cls-16" points="678.653 199.432 688.22 199.432 666.114 221.747 656.548 221.747 678.653 199.432"/><polygon class="cls-1" points="666.596 199.432 676.162 199.432 654.057 221.747 644.49 221.747 666.596 199.432"/><polygon class="cls-1" points="574.824 229.979 584.391 229.979 566.43 248.123 556.864 248.123 574.824 229.979"/><polygon class="cls-1" points="588.891 229.979 598.458 229.979 580.497 248.123 570.931 248.123 588.891 229.979"/><polygon class="cls-1" points="660.881 229.979 651.314 229.979 669.275 248.123 678.842 248.123 660.881 229.979"/><polygon class="cls-1" points="646.814 229.979 637.247 229.979 655.208 248.123 664.774 248.123 646.814 229.979"/><polygon class="cls-16" points="654.538 199.432 664.105 199.432 641.999 221.747 632.433 221.747 654.538 199.432"/><polygon class="cls-1" points="192.52 294.087 199.665 316.077 222.786 316.077 204.081 329.667 211.226 351.657 192.52 338.067 173.815 351.657 180.959 329.667 162.254 316.077 185.375 316.077 192.52 294.087"/><polygon class="cls-1" points="976.261 294.087 983.406 316.077 1006.528 316.077 987.822 329.667 994.967 351.657 976.261 338.067 957.556 351.657 964.701 329.667 945.995 316.077 969.116 316.077 976.261 294.087"/><text class="cls-29" transform="translate(506.18556 551.65729)">2017</text><path class="cls-30" d="M250.30252,424.13421c10.35939,0,10.35939,8.03837,20.71878,8.03837,10.35967,0,10.35967-8.03837,20.71935-8.03837,10.36091,0,10.36091,8.03837,20.72182,8.03837,10.36108,0,10.36108-8.03837,20.72215-8.03837s10.36093,8.03837,20.72185,8.03837c10.36144,0,10.36144-8.03837,20.72288-8.03837,10.36286,0,10.36286,8.03837,20.72572,8.03837s10.36286-8.03837,20.72572-8.03837"/><path class="cls-30" d="M250.30252,440.211c10.35939,0,10.35939,8.03837,20.71878,8.03837,10.35967,0,10.35967-8.03837,20.71935-8.03837,10.36091,0,10.36091,8.03837,20.72182,8.03837,10.36108,0,10.36108-8.03837,20.72215-8.03837s10.36093,8.03837,20.72185,8.03837c10.36144,0,10.36144-8.03837,20.72288-8.03837,10.36286,0,10.36286,8.03837,20.72572,8.03837s10.36286-8.03837,20.72572-8.03837"/><path class="cls-30" d="M250.30252,456.28769c10.35939,0,10.35939,8.03837,20.71878,8.03837,10.35967,0,10.35967-8.03837,20.71935-8.03837,10.36091,0,10.36091,8.03837,20.72182,8.03837,10.36108,0,10.36108-8.03837,20.72215-8.03837s10.36093,8.03837,20.72185,8.03837c10.36144,0,10.36144-8.03837,20.72288-8.03837,10.36286,0,10.36286,8.03837,20.72572,8.03837s10.36286-8.03837,20.72572-8.03837"/><path class="cls-30" d="M752.70072,424.13421c10.35939,0,10.35939,8.03837,20.71878,8.03837,10.35967,0,10.35967-8.03837,20.71935-8.03837,10.36091,0,10.36091,8.03837,20.72182,8.03837,10.36108,0,10.36108-8.03837,20.72215-8.03837s10.36093,8.03837,20.72185,8.03837c10.36144,0,10.36144-8.03837,20.72288-8.03837,10.36286,0,10.36286,8.03837,20.72572,8.03837s10.36286-8.03837,20.72572-8.03837"/><path class="cls-30" d="M752.70072,440.211c10.35939,0,10.35939,8.03837,20.71878,8.03837,10.35967,0,10.35967-8.03837,20.71935-8.03837,10.36091,0,10.36091,8.03837,20.72182,8.03837,10.36108,0,10.36108-8.03837,20.72215-8.03837s10.36093,8.03837,20.72185,8.03837c10.36144,0,10.36144-8.03837,20.72288-8.03837,10.36286,0,10.36286,8.03837,20.72572,8.03837S908.11613,440.211,918.479,440.211"/><path class="cls-30" d="M752.70072,456.28769c10.35939,0,10.35939,8.03837,20.71878,8.03837,10.35967,0,10.35967-8.03837,20.71935-8.03837,10.36091,0,10.36091,8.03837,20.72182,8.03837,10.36108,0,10.36108-8.03837,20.72215-8.03837s10.36093,8.03837,20.72185,8.03837c10.36144,0,10.36144-8.03837,20.72288-8.03837,10.36286,0,10.36286,8.03837,20.72572,8.03837s10.36286-8.03837,20.72572-8.03837"/><path class="cls-1" d="M346.69672,233.41607A19.32906,19.32906,0,0,1,321.96,241.32192c-.55057-.25285-1.096-.53065-1.63236-.84029s-1.04967-.64316-1.54393-.99354a19.297,19.297,0,0,1,12.10754-34.998,19.25139,19.25139,0,0,1,15.33117,8.85145,19.29586,19.29586,0,0,1,.47427,20.07455Z"/><path class="cls-16" d="M334.93418,231.26866A21.60637,21.60637,0,0,1,321.96,241.32192c-.55057-.25285-1.096-.53065-1.63236-.84029s-1.04967-.64316-1.54393-.99354a21.691,21.691,0,0,1,17.61409-26.84079A21.647,21.647,0,0,1,334.93418,231.26866Z"/><path class="cls-16" d="M335.25806,242.3219a21.74361,21.74361,0,0,0,1.1218-29.67568,20.845,20.845,0,0,1,3.74253,1.70568,21.59174,21.59174,0,0,1,9.13714,10.34627,19.27927,19.27927,0,0,1-14.00147,17.62373Z"/><path class="cls-16" d="M311.25481,228.46363a21.74359,21.74359,0,0,1,25.139-15.80935,20.84313,20.84313,0,0,0-3.34843-2.38829,21.59161,21.59161,0,0,0-13.52869-2.73986,19.27926,19.27926,0,0,0-8.26187,20.9375Z"/><path class="cls-16" d="M346.57343,213.90905a18.864,18.864,0,0,0-6.94228-6.862l.004-.007a18.86418,18.86418,0,0,0-9.41383-2.58118,13.94727,13.94727,0,0,1,6.17648,8.18843l-.004.007A13.7388,13.7388,0,0,1,346.57343,213.90905Z"/><ellipse class="cls-31" cx="336.3614" cy="212.62627" rx="2.02889" ry="2.94159" transform="translate(-15.95905 397.61065) rotate(-60)"/><polygon class="cls-32" points="903.387 248.123 897.609 248.123 897.609 211.485 900.498 207.69 903.387 211.485 903.387 248.123"/><polygon class="cls-32" points="913.435 248.123 907.657 248.123 907.657 211.485 910.546 207.69 913.435 211.485 913.435 248.123"/><polygon class="cls-32" points="923.483 248.123 917.705 248.123 917.705 211.485 920.594 207.69 923.483 211.485 923.483 248.123"/><polygon class="cls-32" points="933.531 248.123 927.753 248.123 927.753 211.485 930.642 207.69 933.531 211.485 933.531 248.123"/><polygon class="cls-32" points="943.579 248.123 937.801 248.123 937.801 211.485 940.69 207.69 943.579 211.485 943.579 248.123"/><polygon class="cls-1" points="904.167 248.123 898.39 248.123 898.39 211.485 901.278 207.69 904.167 211.485 904.167 248.123"/><rect class="cls-1" x="891.85824" y="216.47416" width="57.95192" height="5.64062"/><rect class="cls-1" x="891.85824" y="236.28428" width="57.95192" height="5.64062"/><polygon class="cls-1" points="914.215 248.123 908.438 248.123 908.438 211.485 911.326 207.69 914.215 211.485 914.215 248.123"/><polygon class="cls-1" points="924.263 248.123 918.486 248.123 918.486 211.485 921.374 207.69 924.263 211.485 924.263 248.123"/><polygon class="cls-1" points="934.311 248.123 928.534 248.123 928.534 211.485 931.422 207.69 934.311 211.485 934.311 248.123"/><polygon class="cls-1" points="944.359 248.123 938.581 248.123 938.581 211.485 941.47 207.69 944.359 211.485 944.359 248.123"/><rect class="cls-26" x="770.61443" y="199.69724" width="24.94721" height="48.42587"/><path class="cls-33" d="M793.49908,201.76281v46.36033H772.29257V201.76281h21.20651m4.07252-4.13071H768.22005v50.491H797.5716v-50.491Z"/><polygon class="cls-27" points="789.872 248.123 772.625 248.123 772.625 203.014 789.872 207.513 789.872 248.123"/><path class="cls-1" d="M738.03511,524.79848c-3.97077-3.79374-12.61335-10.75138-22.66459-10.75138-13.807,0-24.99988,13.15822-24.99988,13.15822s6.61606,7.74729,15.93718,11.3472c1.6985-2.16689,8.22907-11.456,2.784-19.99754,0,0,8.34382,5.71532,1.89285,21.35293a22.98884,22.98884,0,0,0,4.3859.45563c10.05124,0,18.69382-6.95764,22.66459-10.75138a42.45753,42.45753,0,0,0,14.49158,9.26875V515.52974A42.45738,42.45738,0,0,0,738.03511,524.79848Zm-34.85247,2.40684a2.49764,2.49764,0,1,1,2.4975-2.49768A2.49758,2.49758,0,0,1,703.18264,527.20532Z"/><path class="cls-1" d="M430.74639,524.79848c3.97078-3.79374,12.61336-10.75138,22.6646-10.75138,13.807,0,24.99988,13.15822,24.99988,13.15822s-6.61606,7.74729-15.93718,11.3472c-1.6985-2.16689-8.22907-11.456-2.784-19.99754,0,0-8.34382,5.71532-1.89285,21.35293a22.98884,22.98884,0,0,1-4.3859.45563c-10.05124,0-18.69382-6.95764-22.6646-10.75138a42.45737,42.45737,0,0,1-14.49157,9.26875V515.52974A42.45722,42.45722,0,0,1,430.74639,524.79848Zm34.85248,2.40684a2.49764,2.49764,0,1,0-2.4975-2.49768A2.49758,2.49758,0,0,0,465.59887,527.20532Z"/><path class="cls-1" d="M685.78179,139.3408c5.75465,6.55419-5.93442,26.22641-26.10828,43.93913s-41.19308,26.7585-46.94774,20.20431-.27307-33.29637,19.90079-51.00909S680.02714,132.7866,685.78179,139.3408Z"/><path class="cls-16" d="M659.67351,183.27993a136.74042,136.74042,0,0,1-10.849,8.65843c-4.223-3.63872-15.8633-34.56674-16.198-39.46321,4.812.96533,33.97438,16.50889,37.03619,21.16719A135.00389,135.00389,0,0,1,659.67351,183.27993Z"/><path class="cls-16" d="M628.5357,203.39812c-7.41726,2.821-13.19251,3.06719-15.80993.08612-5.75465-6.55419-.27307-33.29637,19.90079-51.00909C618.29149,174.00436,628.5357,203.39812,628.5357,203.39812Z"/><path class="cls-16" d="M683.657,155.00143c3.75692-6.98993,4.74816-12.68478,2.13075-15.66585-5.75465-6.55419-32.98136-4.57837-53.15523,13.13436C655.83543,141.04065,683.657,155.00143,683.657,155.00143Z"/><path class="cls-34" d="M632.24418,153.42106l-4.33318-6.28,5.973,4.73923A1.66138,1.66138,0,0,1,632.24418,153.42106Z"/><line class="cls-26" x1="793.55363" y1="226.7712" x2="820.63347" y2="226.7712"/><rect class="cls-33" x="793.55325" y="224.7616" width="27.08044" height="4.01919"/><polygon class="cls-33" points="817.504 248.122 797.576 231.411 797.583 228.789 800.69 228.777 820.636 245.503 820.634 248.123 817.504 248.122"/><polygon class="cls-33" points="797.574 248.123 797.573 245.502 817.508 228.78 820.634 228.781 820.634 231.403 800.702 248.123 797.574 248.123"/><rect class="cls-33" x="745.15796" y="224.76146" width="23.06082" height="4.01919"/><polygon class="cls-33" points="765.09 248.121 745.161 231.41 745.168 228.789 748.275 228.777 768.221 245.503 768.219 248.123 765.09 248.121"/><polygon class="cls-33" points="745.159 248.123 745.158 245.502 765.093 228.78 768.219 228.781 768.219 231.403 748.287 248.123 745.159 248.123"/><path class="cls-1" d="M473.72749,213.28309c-13.44323,36.96744-24.92876,34.87856-24.92876,34.87856s-10.1444-5.77685,3.29884-42.7443,24.92876-34.87856,24.92876-34.87856S487.17073,176.31564,473.72749,213.28309Z"/><path class="cls-16" d="M473.72749,213.28309c-13.44323,36.96744-24.92876,34.87856-24.92876,34.87856l28.2276-77.62286S487.17073,176.31564,473.72749,213.28309Z"/><path class="cls-16" d="M457.3336,225.11011a10.587,10.587,0,0,0-.64593-3.7684c-.62791-1.37206-1.94136-1.9873-2.69749-1.40564-1.35828,1.04486.329,3.19791.329,3.19791s-2.79391-1.01261-2.254-3.61491c.45383-2.18745,2.58636-3.24087,4.15589-3.54975a50.77741,50.77741,0,0,0,4.88035-1.42887Z"/><path class="cls-16" d="M460.52137,216.16751a10.587,10.587,0,0,0-.64593-3.7684c-.62791-1.37206-1.94137-1.9873-2.69749-1.40564-1.35828,1.04486.32895,3.19792.32895,3.19792s-2.7939-1.01262-2.254-3.61492c.45383-2.18745,2.58636-3.24087,4.15589-3.54975a50.77741,50.77741,0,0,0,4.88035-1.42887Z"/><path class="cls-16" d="M463.70913,207.22491a10.587,10.587,0,0,0-.64592-3.76839c-.62791-1.37207-1.94137-1.98731-2.6975-1.40565-1.35827,1.04486.329,3.19792.329,3.19792s-2.7939-1.01262-2.254-3.61492c.45383-2.18745,2.58635-3.24087,4.15589-3.54975a50.77741,50.77741,0,0,0,4.88035-1.42887Z"/><path class="cls-16" d="M466.8969,198.28231a10.587,10.587,0,0,0-.64592-3.76839c-.62791-1.37207-1.94137-1.98731-2.6975-1.40565-1.35827,1.04486.329,3.19792.329,3.19792s-2.7939-1.01262-2.254-3.61492c.45382-2.18745,2.58635-3.24087,4.15588-3.54975a50.778,50.778,0,0,0,4.88036-1.42886Z"/><path class="cls-4" d="M584.35642,83.60651c-3.61022.46126-5.8,3.88135-8.072,6.97429a12.45312,12.45312,0,0,1-9.32491,5.10467c-14.75171-1.36822-5.69176-20.11066,4.67335-21.66748,2.99442-.44975,7.672,3.13252,10.44377,4.59435a4.87112,4.87112,0,0,0,4.55967,0c2.77176-1.46183,7.44935-5.0441,10.44377-4.59435,10.36511,1.55682,19.42506,20.29926,4.67335,21.66748,0,0-6.0522,0-9.32491-5.10467C590.09926,87.53067,587.96663,84.06777,584.35642,83.60651Z"/><path class="cls-35" d="M580.33282,94.022s3.82644-6.25,8.33333,0"/><path class="cls-35" d="M573.66615,99.772s10.375,15.25,23.125,0"/><path id="_Path_" data-name="&lt;Path&gt;" class="cls-36" d="M48.22112,9040.19093l6.67969,13.54846s14.28249,12.53787,22.149,14.77795c7.02263,1.99979,22.66086,4.06814,28.39384,11.31752l1.23909,1.56684c0,4.53625-5.69053,7.9535-14.77839,7.9535H54.05166a14.28127,14.28127,0,0,1-4.80179-.82881l-8.366-.47135L34.853,9089.3552H12.0404c-5.462,0-11.80009-.5183-11.94863-5.631-.00154-.05285-1.0089-4.12108,3.68863-5.38277-6.28392-3.97288-1.06848-20.32455.77485-24.62809,1.54591-2.52885,8.22032,5.4338,12.59815,3.72068,14.95025-5.85031,18.614-13.98692,21.11227-17.768A5.83755,5.83755,0,0,1,48.22112,9040.19093Z"/></g></g></svg>